M48
METRIC,TZ
T01C0.4060
T02C0.3810
T03C0.5080
T04C1.0160
%
T01
X+18614Y+4801
X+17785Y+6744
X-9050Y-6155
X-7949Y+11831
X-2884Y+9371
X+5999Y-10780
X+3260Y+1590
X+5560Y+13290
X+7760Y+4190
X+21235Y+12226
X+14160Y+5390
X+1260Y+18690
X+9885Y+4949
X+14785Y+11235
X+1789Y+1890
X+2685Y+315
X-10530Y+17422
X-1072Y+14130
X-13740Y-210
X-13840Y-12210
X-7923Y+5044
X+11960Y+11990
X-5403Y-9873
T02
X-14898Y+13126
T03
X-1340Y+3490
X-540Y-7210
T04
X-15240Y-16510
X-12700Y-16510
X+20320Y-16510
X+20320Y-13970
X+20320Y-11430
X+20320Y+19050
X+17780Y+19050
X+15240Y+19050
X+12700Y+19050
X+10160Y+19050
X-12700Y+19050
X-15240Y+19050
X-14529Y+4394
X-14529Y+6934
X+13970Y+7696
X+16612Y+315
X+16586Y-5207
X+16586Y-2438
M30
