G04 PROTEUS RS274X GERBER FILE*
%FSLAX45Y45*%
%MOMM*%
G01*
%ADD10C,0.177800*%
%ADD11C,0.203200*%
%ADD12C,0.508000*%
%ADD13C,1.016000*%
%ADD14C,1.270000*%
%ADD15R,1.400000X3.400000*%
%ADD16R,1.200000X3.400000*%
%AMPPAD007*
4,1,20,
0.005000,-0.605000,
-0.005000,-0.605000,
-0.029540,-0.602610,
-0.052230,-0.595740,
-0.072630,-0.584830,
-0.090310,-0.570310,
-0.104830,-0.552630,
-0.115740,-0.532230,
-0.122610,-0.509540,
-0.125000,-0.485000,
-0.125000,0.125000,
0.125000,0.125000,
0.125000,-0.485000,
0.122610,-0.509540,
0.115740,-0.532230,
0.104830,-0.552630,
0.090310,-0.570310,
0.072630,-0.584830,
0.052230,-0.595740,
0.029540,-0.602610,
0.005000,-0.605000,
0*%
%ADD17PPAD007*%
%AMPPAD008*
4,1,20,
0.605000,0.005000,
0.605000,-0.005000,
0.602610,-0.029540,
0.595740,-0.052230,
0.584830,-0.072630,
0.570310,-0.090310,
0.552630,-0.104830,
0.532230,-0.115740,
0.509540,-0.122610,
0.485000,-0.125000,
-0.125000,-0.125000,
-0.125000,0.125000,
0.485000,0.125000,
0.509540,0.122610,
0.532230,0.115740,
0.552630,0.104830,
0.570310,0.090310,
0.584830,0.072630,
0.595740,0.052230,
0.602610,0.029540,
0.605000,0.005000,
0*%
%ADD18PPAD008*%
%AMPPAD009*
4,1,20,
-0.005000,0.605000,
0.005000,0.605000,
0.029540,0.602610,
0.052230,0.595740,
0.072630,0.584830,
0.090310,0.570310,
0.104830,0.552630,
0.115740,0.532230,
0.122610,0.509540,
0.125000,0.485000,
0.125000,-0.125000,
-0.125000,-0.125000,
-0.125000,0.485000,
-0.122610,0.509540,
-0.115740,0.532230,
-0.104830,0.552630,
-0.090310,0.570310,
-0.072630,0.584830,
-0.052230,0.595740,
-0.029540,0.602610,
-0.005000,0.605000,
0*%
%ADD19PPAD009*%
%AMPPAD010*
4,1,20,
-0.605000,-0.005000,
-0.605000,0.005000,
-0.602610,0.029540,
-0.595740,0.052230,
-0.584830,0.072630,
-0.570310,0.090310,
-0.552630,0.104830,
-0.532230,0.115740,
-0.509540,0.122610,
-0.485000,0.125000,
0.125000,0.125000,
0.125000,-0.125000,
-0.485000,-0.125000,
-0.509540,-0.122610,
-0.532230,-0.115740,
-0.552630,-0.104830,
-0.570310,-0.090310,
-0.584830,-0.072630,
-0.595740,-0.052230,
-0.602610,-0.029540,
-0.605000,-0.005000,
0*%
%ADD70PPAD010*%
%ADD71R,0.508000X0.762000*%
%ADD20C,2.032000*%
%ADD21R,1.016000X1.270000*%
%ADD22R,0.889000X0.889000*%
%ADD23R,1.270000X1.016000*%
%ADD24R,0.762000X0.508000*%
%ADD25R,2.032000X2.032000*%
%TD.AperFunction*%
G36*
X+2289841Y-1900781D02*
X-1767921Y-1900781D01*
X-1767921Y-717549D01*
X-1593849Y-717549D01*
X-1593849Y-739141D01*
X-1648459Y-739141D01*
X-1648459Y-1176019D01*
X-1593849Y-1176019D01*
X-1593849Y-1490956D01*
X-1686559Y-1583666D01*
X-1686559Y-1718334D01*
X-1591334Y-1813559D01*
X-1456666Y-1813559D01*
X-1397000Y-1753893D01*
X-1337334Y-1813559D01*
X-1202666Y-1813559D01*
X-1107441Y-1718334D01*
X-1107441Y-1583666D01*
X-1197611Y-1493496D01*
X-1197611Y-1170939D01*
X-1143001Y-1170939D01*
X-1143001Y-734061D01*
X-1197611Y-734061D01*
X-1197611Y-722629D01*
X-986791Y-722629D01*
X-986791Y-511811D01*
X-1195071Y-511811D01*
X-1195071Y-473709D01*
X-1162051Y-473709D01*
X-1162051Y-367831D01*
X-1161873Y-367653D01*
X-1162051Y-367415D01*
X-1162051Y-188951D01*
X-1019809Y-46709D01*
X-1019809Y-240029D01*
X-808991Y-240029D01*
X-808991Y+10331D01*
X-462129Y+10331D01*
X-462129Y-290390D01*
X-251311Y-290390D01*
X-251311Y-64609D01*
X-236219Y-64609D01*
X-236219Y-162559D01*
X-223519Y-162559D01*
X-223519Y-341471D01*
X-425349Y-341471D01*
X-425349Y-552289D01*
X-41811Y-552289D01*
X-41811Y-549909D01*
X+88901Y-549909D01*
X+88901Y-625229D01*
X+87883Y-634641D01*
X+35653Y-634641D01*
X-2447Y-596541D01*
X-105553Y-596541D01*
X-178459Y-669447D01*
X-178459Y-772553D01*
X-105553Y-845459D01*
X-2447Y-845459D01*
X+35653Y-807359D01*
X+88901Y-807359D01*
X+88901Y-1172411D01*
X+633849Y-1717359D01*
X+1032351Y-1717359D01*
X+1032351Y-1755148D01*
X+1243169Y-1755148D01*
X+1243169Y-1736098D01*
X+1887205Y-1736098D01*
X+1964666Y-1813559D01*
X+2099334Y-1813559D01*
X+2194559Y-1718334D01*
X+2194559Y-1583666D01*
X+2134893Y-1524000D01*
X+2194559Y-1464334D01*
X+2194559Y-1329666D01*
X+2134893Y-1270000D01*
X+2194559Y-1210334D01*
X+2194559Y-1075666D01*
X+2099334Y-980441D01*
X+1964666Y-980441D01*
X+1869441Y-1075666D01*
X+1869441Y-1210334D01*
X+1929107Y-1270000D01*
X+1869441Y-1329666D01*
X+1869441Y-1464334D01*
X+1929107Y-1524000D01*
X+1889727Y-1563380D01*
X+1243169Y-1563380D01*
X+1243169Y-1371610D01*
X+1032351Y-1371610D01*
X+1032351Y-1544641D01*
X+705391Y-1544641D01*
X+261619Y-1100869D01*
X+261619Y-934539D01*
X+972939Y-934539D01*
X+972939Y-472621D01*
X+863655Y-472621D01*
X+747022Y-355988D01*
X+1177330Y-355988D01*
X+1412093Y-590751D01*
X+1496061Y-590751D01*
X+1496061Y-683259D01*
X+1821179Y-683259D01*
X+1821179Y-131099D01*
X+1823719Y-131099D01*
X+1823719Y+179151D01*
X+1914931Y+179151D01*
X+2025849Y+290069D01*
X+2025849Y+890531D01*
X+1593849Y+1322531D01*
X+1593849Y+1744956D01*
X+1651000Y+1802107D01*
X+1710666Y+1742441D01*
X+1845334Y+1742441D01*
X+1905000Y+1802107D01*
X+1964666Y+1742441D01*
X+2099334Y+1742441D01*
X+2194559Y+1837666D01*
X+2194559Y+1972334D01*
X+2099334Y+2067559D01*
X+1964666Y+2067559D01*
X+1905000Y+2007893D01*
X+1845334Y+2067559D01*
X+1710666Y+2067559D01*
X+1651000Y+2007893D01*
X+1591334Y+2067559D01*
X+1456666Y+2067559D01*
X+1397000Y+2007893D01*
X+1337334Y+2067559D01*
X+1202666Y+2067559D01*
X+1143000Y+2007893D01*
X+1083334Y+2067559D01*
X+948666Y+2067559D01*
X+853441Y+1972334D01*
X+853441Y+1837666D01*
X+948666Y+1742441D01*
X+1083334Y+1742441D01*
X+1143000Y+1802107D01*
X+1200151Y+1744956D01*
X+1200151Y+1310759D01*
X+1195941Y+1310759D01*
X+1193799Y+1312901D01*
X+1193799Y+1450339D01*
X+756921Y+1450339D01*
X+756921Y+1201421D01*
X+798831Y+1201421D01*
X+798831Y+816331D01*
X+731228Y+748728D01*
X+575169Y+748728D01*
X+575169Y+906789D01*
X+278629Y+906789D01*
X+278629Y+1035051D01*
X+659129Y+1035051D01*
X+659129Y+1245869D01*
X+311149Y+1245869D01*
X+311149Y+1418589D01*
X+199111Y+1418589D01*
X-157220Y+1774920D01*
X-161291Y+1774920D01*
X-161291Y+1987549D01*
X-372109Y+1987549D01*
X-372109Y+1777546D01*
X-416386Y+1777546D01*
X-530861Y+1892021D01*
X-530861Y+2029459D01*
X-967739Y+2029459D01*
X-967739Y+1974849D01*
X-1109956Y+1974849D01*
X-1202666Y+2067559D01*
X-1337334Y+2067559D01*
X-1397000Y+2007893D01*
X-1456666Y+2067559D01*
X-1591334Y+2067559D01*
X-1686559Y+1972334D01*
X-1686559Y+1837666D01*
X-1594609Y+1745716D01*
X-1594609Y+1625466D01*
X-1362334Y+1393191D01*
X-962659Y+1393191D01*
X-962659Y+1338581D01*
X-525781Y+1338581D01*
X-525781Y+1393191D01*
X-504189Y+1393191D01*
X-504189Y+1184911D01*
X-293371Y+1184911D01*
X-293371Y+1294411D01*
X+8891Y+992149D01*
X+8891Y+758189D01*
X-156209Y+758189D01*
X-156209Y+610869D01*
X-280669Y+610869D01*
X-280669Y+481372D01*
X-359411Y+560114D01*
X-359411Y+1055369D01*
X-570229Y+1055369D01*
X-570229Y+674369D01*
X-717012Y+674369D01*
X-804818Y+762175D01*
X-817881Y+762175D01*
X-817881Y+817879D01*
X-824231Y+817879D01*
X-824231Y+1154429D01*
X-1035049Y+1154429D01*
X-1035049Y+817879D01*
X-1254759Y+817879D01*
X-1254759Y+763269D01*
X-1292836Y+763269D01*
X-1385546Y+855979D01*
X-1520214Y+855979D01*
X-1615439Y+760754D01*
X-1615439Y+626086D01*
X-1555773Y+566420D01*
X-1615439Y+506754D01*
X-1615439Y+372086D01*
X-1520214Y+276861D01*
X-1385546Y+276861D01*
X-1332836Y+329571D01*
X-1280149Y+329571D01*
X-1280149Y+200029D01*
X-1408431Y+200029D01*
X-1408431Y+234949D01*
X-1767921Y+234949D01*
X-1767921Y+2136981D01*
X+2289841Y+2136981D01*
X+2289841Y-1900781D01*
G37*
%LPC*%
G36*
X-935525Y-628119D02*
X-935525Y-602869D01*
X-917670Y-585014D01*
X-892420Y-585014D01*
X-874565Y-602869D01*
X-874565Y-628119D01*
X-892420Y-645974D01*
X-917670Y-645974D01*
X-935525Y-628119D01*
G37*
G36*
X-825410Y+1170435D02*
X-825410Y+1195685D01*
X-807555Y+1213540D01*
X-782305Y+1213540D01*
X-764450Y+1195685D01*
X-764450Y+1170435D01*
X-782305Y+1152580D01*
X-807555Y+1152580D01*
X-825410Y+1170435D01*
G37*
G36*
X-318878Y+924510D02*
X-318878Y+949760D01*
X-301023Y+967615D01*
X-275773Y+967615D01*
X-257918Y+949760D01*
X-257918Y+924510D01*
X-275773Y+906655D01*
X-301023Y+906655D01*
X-318878Y+924510D01*
G37*
G36*
X+569388Y-1090604D02*
X+569388Y-1065354D01*
X+587243Y-1047499D01*
X+612493Y-1047499D01*
X+630348Y-1065354D01*
X+630348Y-1090604D01*
X+612493Y-1108459D01*
X+587243Y-1108459D01*
X+569388Y-1090604D01*
G37*
G36*
X+525520Y+1316375D02*
X+525520Y+1341625D01*
X+543375Y+1359480D01*
X+568625Y+1359480D01*
X+586480Y+1341625D01*
X+586480Y+1316375D01*
X+568625Y+1298520D01*
X+543375Y+1298520D01*
X+525520Y+1316375D01*
G37*
G36*
X+2093023Y+1209949D02*
X+2093023Y+1235199D01*
X+2110878Y+1253054D01*
X+2136128Y+1253054D01*
X+2153983Y+1235199D01*
X+2153983Y+1209949D01*
X+2136128Y+1192094D01*
X+2110878Y+1192094D01*
X+2093023Y+1209949D01*
G37*
G36*
X+95520Y+1856375D02*
X+95520Y+1881625D01*
X+113375Y+1899480D01*
X+138625Y+1899480D01*
X+156480Y+1881625D01*
X+156480Y+1856375D01*
X+138625Y+1838520D01*
X+113375Y+1838520D01*
X+95520Y+1856375D01*
G37*
G36*
X-1519028Y+1300497D02*
X-1519028Y+1324695D01*
X-1501917Y+1341806D01*
X-1477719Y+1341806D01*
X-1460608Y+1324695D01*
X-1460608Y+1300497D01*
X-1477719Y+1283386D01*
X-1501917Y+1283386D01*
X-1519028Y+1300497D01*
G37*
G36*
X-570743Y-999952D02*
X-570743Y-974702D01*
X-552888Y-956847D01*
X-527638Y-956847D01*
X-509783Y-974702D01*
X-509783Y-999952D01*
X-527638Y-1017807D01*
X-552888Y-1017807D01*
X-570743Y-999952D01*
G37*
%LPD*%
G36*
X-967739Y+1780541D02*
X-616941Y+1780541D01*
X-474248Y+1637848D01*
X-372109Y+1637848D01*
X-372109Y+1604011D01*
X-183871Y+1604011D01*
X+100331Y+1319809D01*
X+100331Y+1098269D01*
X-293371Y+1491971D01*
X-293371Y+1568449D01*
X-504189Y+1568449D01*
X-504189Y+1532889D01*
X-525781Y+1532889D01*
X-525781Y+1587499D01*
X-962659Y+1587499D01*
X-962659Y+1532889D01*
X-1304472Y+1532889D01*
X-1454911Y+1683328D01*
X-1454911Y+1744196D01*
X-1397000Y+1802107D01*
X-1337334Y+1742441D01*
X-1202666Y+1742441D01*
X-1109956Y+1835151D01*
X-967739Y+1835151D01*
X-967739Y+1780541D01*
G37*
%LPC*%
G36*
X-1083481Y+1729566D02*
X-1083481Y+1754816D01*
X-1065626Y+1772671D01*
X-1040376Y+1772671D01*
X-1022521Y+1754816D01*
X-1022521Y+1729566D01*
X-1040376Y+1711711D01*
X-1065626Y+1711711D01*
X-1083481Y+1729566D01*
G37*
G36*
X-137666Y+1400369D02*
X-137666Y+1425619D01*
X-119811Y+1443474D01*
X-94561Y+1443474D01*
X-76706Y+1425619D01*
X-76706Y+1400369D01*
X-94561Y+1382514D01*
X-119811Y+1382514D01*
X-137666Y+1400369D01*
G37*
%LPD*%
G36*
X+1454151Y+1744956D02*
X+1454151Y+1264669D01*
X+1886151Y+832669D01*
X+1886151Y+724779D01*
X+1824788Y+786142D01*
X+1732204Y+786142D01*
X+1666737Y+720675D01*
X+1666737Y+661404D01*
X+1496869Y+491536D01*
X+1100265Y+491536D01*
X+1100265Y+537211D01*
X+1263371Y+537211D01*
X+1333221Y+607061D01*
X+1559559Y+607061D01*
X+1559559Y+932179D01*
X+1234441Y+932179D01*
X+1234441Y+705841D01*
X+1205509Y+676909D01*
X+856969Y+676909D01*
X+938529Y+758469D01*
X+938529Y+925996D01*
X+1201775Y+925996D01*
X+1432166Y+1156387D01*
X+1432166Y+1255018D01*
X+1339849Y+1347335D01*
X+1339849Y+1744956D01*
X+1397000Y+1802107D01*
X+1454151Y+1744956D01*
G37*
%LPC*%
G36*
X+1385520Y+526375D02*
X+1385520Y+551625D01*
X+1403375Y+569480D01*
X+1428625Y+569480D01*
X+1446480Y+551625D01*
X+1446480Y+526375D01*
X+1428625Y+508520D01*
X+1403375Y+508520D01*
X+1385520Y+526375D01*
G37*
G36*
X+1447991Y+1110828D02*
X+1447991Y+1136078D01*
X+1465846Y+1153933D01*
X+1491096Y+1153933D01*
X+1508951Y+1136078D01*
X+1508951Y+1110828D01*
X+1491096Y+1092973D01*
X+1465846Y+1092973D01*
X+1447991Y+1110828D01*
G37*
%LPD*%
G36*
X-1254759Y+568961D02*
X-817881Y+568961D01*
X-817881Y+577678D01*
X-742949Y+502746D01*
X-742949Y+463551D01*
X-567689Y+463551D01*
X-567689Y+285749D01*
X-587951Y+285749D01*
X-587951Y+339769D01*
X-810261Y+339769D01*
X-810261Y+479258D01*
X-804942Y+473939D01*
X-779692Y+473939D01*
X-761837Y+491794D01*
X-761837Y+517044D01*
X-779692Y+534899D01*
X-804942Y+534899D01*
X-815962Y+523879D01*
X-1247139Y+523879D01*
X-1247139Y+469269D01*
X-1290321Y+469269D01*
X-1290321Y+506754D01*
X-1349987Y+566420D01*
X-1292836Y+623571D01*
X-1254759Y+623571D01*
X-1254759Y+568961D01*
G37*
G36*
X+876747Y+481929D02*
X+806480Y+411662D01*
X+806480Y+431625D01*
X+788625Y+449480D01*
X+763375Y+449480D01*
X+745520Y+431625D01*
X+745520Y+406375D01*
X+763375Y+388520D01*
X+783338Y+388520D01*
X+744847Y+350029D01*
X+592239Y+350029D01*
X+592239Y+353639D01*
X+482239Y+353639D01*
X+482239Y+419898D01*
X+599552Y+537211D01*
X+876747Y+537211D01*
X+876747Y+481929D01*
G37*
G36*
X+35321Y-149861D02*
X-38101Y-149861D01*
X-38101Y-93279D01*
X+35321Y-93279D01*
X+35321Y-149861D01*
G37*
G36*
X-1583689Y-82551D02*
X-1616709Y-82551D01*
X-1616709Y-466089D01*
X-1596389Y-466089D01*
X-1596389Y-506731D01*
X-1767921Y-506731D01*
X-1767921Y+24131D01*
X-1583689Y+24131D01*
X-1583689Y-82551D01*
G37*
G36*
X-1260831Y-90171D02*
X-1372869Y-90171D01*
X-1372869Y-473709D01*
X-1334769Y-473709D01*
X-1334769Y-511811D01*
X-1370329Y-511811D01*
X-1370329Y-722629D01*
X-1337309Y-722629D01*
X-1337309Y-734061D01*
X-1391919Y-734061D01*
X-1391919Y-1170939D01*
X-1337309Y-1170939D01*
X-1337309Y-1488441D01*
X-1337334Y-1488441D01*
X-1397000Y-1548107D01*
X-1454151Y-1490956D01*
X-1454151Y-1176019D01*
X-1399541Y-1176019D01*
X-1399541Y-739141D01*
X-1454151Y-739141D01*
X-1454151Y-717549D01*
X-1421131Y-717549D01*
X-1421131Y-506731D01*
X-1456691Y-506731D01*
X-1456691Y-466089D01*
X-1405891Y-466089D01*
X-1405891Y-82551D01*
X-1443991Y-82551D01*
X-1443991Y+24131D01*
X-1408431Y+24131D01*
X-1408431Y+60331D01*
X-1110329Y+60331D01*
X-1260831Y-90171D01*
G37*
%LPC*%
G36*
X-1404480Y-33625D02*
X-1404480Y-8375D01*
X-1386625Y+9480D01*
X-1361375Y+9480D01*
X-1343520Y-8375D01*
X-1343520Y-33625D01*
X-1361375Y-51480D01*
X-1386625Y-51480D01*
X-1404480Y-33625D01*
G37*
G36*
X-1414480Y-1233625D02*
X-1414480Y-1208375D01*
X-1396625Y-1190520D01*
X-1371375Y-1190520D01*
X-1353520Y-1208375D01*
X-1353520Y-1233625D01*
X-1371375Y-1251480D01*
X-1396625Y-1251480D01*
X-1414480Y-1233625D01*
G37*
%LPD*%
G36*
X+126000Y+269000D02*
X+386000Y+269000D01*
X+386000Y-11000D01*
X+126000Y-12180D01*
X+126000Y+269000D01*
G37*
%LPC*%
G36*
X+295520Y+146375D02*
X+295520Y+171625D01*
X+313375Y+189480D01*
X+338625Y+189480D01*
X+356480Y+171625D01*
X+356480Y+146375D01*
X+338625Y+128520D01*
X+313375Y+128520D01*
X+295520Y+146375D01*
G37*
G36*
X+148394Y+176375D02*
X+148394Y+201625D01*
X+166249Y+219480D01*
X+191499Y+219480D01*
X+209354Y+201625D01*
X+209354Y+176375D01*
X+191499Y+158520D01*
X+166249Y+158520D01*
X+148394Y+176375D01*
G37*
G36*
X+238040Y+18895D02*
X+238040Y+44145D01*
X+255895Y+62000D01*
X+281145Y+62000D01*
X+299000Y+44145D01*
X+299000Y+18895D01*
X+281145Y+1040D01*
X+255895Y+1040D01*
X+238040Y+18895D01*
G37*
%LPD*%
D10*
X+408780Y+390180D02*
X+408780Y+443721D01*
X+408031Y+444470D01*
X+570621Y+607060D01*
X+1130300Y+607060D01*
X+1234440Y+607060D01*
X+1397000Y+769620D01*
X-1220Y+30180D02*
X-122808Y+30180D01*
X-122846Y+30142D01*
X-137160Y+15240D01*
X+25400Y-19820D02*
X-30980Y-76200D01*
X-137160Y-76200D01*
X-1220Y-19820D02*
X+25400Y-19820D01*
X+158231Y-19820D01*
X+158403Y-19648D01*
X+108780Y-129820D02*
X+108780Y-184557D01*
X+73537Y-219800D01*
X+44417Y-248920D01*
X-45720Y-248920D01*
D11*
X+208780Y-129820D02*
X+208780Y-295690D01*
X+207886Y-296584D01*
X+193040Y-309880D01*
D12*
X+193040Y-446463D01*
X+195503Y-448926D01*
X+175260Y-444500D01*
D10*
X+157824Y-101588D02*
X+157824Y-101596D01*
X+157824Y-200316D01*
X+101600Y-256540D01*
X+101600Y-308967D01*
X+96978Y-313589D01*
X+158403Y-19648D02*
X+158403Y-90517D01*
X+157480Y-91440D01*
X+157824Y-101588D01*
X+157824Y-101596D02*
X+158780Y-129820D01*
X+258780Y-129820D02*
X+258780Y-357840D01*
X+355600Y-454660D01*
X+355600Y-572495D01*
X+354659Y-573436D01*
X+351980Y-703580D01*
X+308780Y-129820D02*
X+309880Y-128720D01*
X+309880Y-260149D01*
X+456432Y-406701D01*
X+698955Y-406701D01*
X+825834Y-533580D01*
X+851980Y-703580D01*
X-1270000Y-1651000D02*
X-1267460Y-1648460D01*
X-1267460Y-1059180D01*
X-1524000Y-1651000D02*
X-1524000Y-1044980D01*
X-1523396Y-1044376D01*
X-1524000Y-1064260D01*
X-1267460Y-845820D02*
X-1267460Y-619760D01*
X-1264920Y-617220D01*
X-1220Y+80180D02*
X-901559Y+80180D01*
X-910083Y+71656D01*
X-914400Y+38100D01*
X-1267460Y-195580D02*
X-1001308Y+70572D01*
X-958850Y+70572D01*
X-914400Y+38100D01*
X-1514587Y+123567D02*
X-1514587Y+123470D01*
X-1516754Y+121303D01*
X-1514587Y+123567D01*
X-1513840Y+129540D02*
X-1513840Y+124460D01*
X-1513840Y+124347D01*
X-1513840Y+124217D01*
X-1513840Y-200660D01*
X-1506220Y-208280D01*
X-1511300Y-187960D01*
X-1511300Y+127000D02*
X-1513840Y+124460D01*
X-1514587Y+123713D01*
X-1514587Y+123567D01*
X-1220Y+130180D02*
X-1507877Y+130180D01*
X-1513840Y+124217D01*
X-1514587Y+123470D01*
X-1514587Y+123567D02*
X-1513840Y+124347D01*
X-1511300Y+127000D01*
X-1220Y+180180D02*
X-468289Y+180180D01*
X-479288Y+191179D01*
X-462280Y+215900D01*
X-1220Y+230180D02*
X-227640Y+230180D01*
X-335280Y+337820D01*
X-335280Y+437203D01*
X-422587Y+524510D01*
X-464820Y+568960D01*
X-464820Y+777240D01*
X-637540Y+568960D02*
X-710383Y+568960D01*
X-833749Y+692326D01*
X-908615Y+692326D01*
X-915125Y+698836D01*
X-929640Y+693420D01*
X-929640Y+876300D02*
X-929640Y+693420D01*
X-1143000Y+693420D02*
X-1430512Y+693420D01*
X-1431588Y+694496D01*
X-1452880Y+693420D01*
X+308780Y+390180D02*
X+306634Y+392326D01*
X+306634Y+514914D01*
X+363220Y+571500D01*
X+363220Y+603611D01*
X+364174Y+604565D01*
X+367380Y+626820D01*
X+121920Y+652780D02*
X+121920Y+805180D01*
X+118110Y+808990D01*
X+114300Y+812800D01*
X+121920Y+805180D02*
X+118110Y+808990D01*
X+114300Y+812800D01*
X+158780Y+390180D02*
X+158780Y+615920D01*
X+121920Y+652780D01*
X+114300Y+985520D02*
X-368300Y+1468120D01*
X-391160Y+1468120D01*
X-398780Y+1463040D01*
X-637540Y+1463040D02*
X-398780Y+1463040D01*
X-855980Y+1905000D02*
X-1251676Y+1905000D01*
X-1263076Y+1916400D01*
X-1270000Y+1905000D01*
X+205740Y+1313180D02*
X-186151Y+1705071D01*
X-222250Y+1705071D01*
X-266700Y+1709420D01*
X-642620Y+1905000D02*
X-445317Y+1707697D01*
X-311150Y+1707697D01*
X-266700Y+1709420D01*
X+952500Y+1109980D02*
X+868680Y+1193800D01*
X+868680Y+1320800D02*
X+878840Y+1330960D01*
X+868680Y+1325880D01*
X+1043940Y+1109980D02*
X+1082681Y+1148721D01*
X+1082681Y+1262380D01*
X+1082040Y+1325880D01*
X+108780Y+390180D02*
X+108780Y+394140D01*
X-2540Y+505460D01*
D12*
X+175260Y-444500D02*
X+175260Y-661000D01*
D10*
X-1220Y+280180D02*
X+36800Y+318200D01*
X+108780Y+390180D01*
X+408780Y-129820D02*
X+408780Y-165229D01*
X+438394Y-194843D01*
X+471000Y-227449D01*
X+1557020Y-227449D01*
X+1658620Y-243840D01*
X+358780Y-129820D02*
X+358780Y-193483D01*
X+451436Y-286139D01*
X+1206261Y-286139D01*
X+1441024Y-520902D01*
X+1661114Y-520902D01*
X+1667635Y-527423D01*
X+1658620Y-520700D01*
X+518780Y-19820D02*
X+1377180Y-19820D01*
X+1426000Y+29000D01*
X+1657176Y+29000D01*
X+1678816Y+7360D01*
X+1661160Y+31460D01*
X+1524000Y+1905000D02*
X+1524000Y+1293600D01*
X+1956000Y+861600D01*
X+1956000Y+319000D01*
X+1886000Y+249000D01*
X+1247145Y+249000D01*
X+1128325Y+130180D01*
X+518780Y+130180D01*
X+518780Y+180180D02*
X+1008774Y+180180D01*
X+1150600Y+322006D01*
X+1703270Y+322006D01*
X+1861408Y+480144D01*
X+518780Y+230180D02*
X+910417Y+230180D01*
X+1101924Y+421687D01*
X+1525800Y+421687D01*
X+1778496Y+674383D01*
D12*
X+1150460Y-1652279D02*
X+1137760Y-1649739D01*
D10*
X+205740Y+1140460D02*
X+208780Y+1140460D01*
X+384127Y+1140460D01*
X+390184Y+1146517D01*
X+381000Y+1140460D01*
X+208780Y+390180D02*
X+208780Y+1140460D01*
X+208780Y+1143500D01*
X+210820Y+1145540D01*
X+205740Y+1140460D01*
X-1264920Y-617220D02*
X-1264920Y-371920D01*
X-1254000Y-361000D01*
X-1267460Y-368300D01*
X-1526540Y-612140D02*
X-1526540Y-587479D01*
X-1526540Y-368395D01*
X-1507168Y-349023D01*
X-1511300Y-360680D01*
X-1524000Y-850900D02*
X-1524000Y-590019D01*
X-1526540Y-587479D01*
X-1530244Y-583775D01*
X-1526540Y-612140D01*
X-1092200Y-617220D02*
X-906771Y-617220D01*
X-905045Y-615494D01*
X-929640Y+1049020D02*
X-795600Y+1183060D01*
X-794930Y+1183060D01*
X-464820Y+949960D02*
X-301223Y+949960D01*
X-288398Y+937135D01*
X+601980Y-703580D02*
X+601980Y-1075867D01*
X+599868Y-1077979D01*
X+258780Y+159000D02*
X+326000Y+159000D01*
X+258780Y+383540D02*
X+258780Y+159000D01*
X+258780Y+127245D01*
X+228268Y+96732D01*
X+158403Y+26868D01*
X+158403Y-19648D01*
D12*
X+175260Y-661000D02*
X+175260Y-1136640D01*
X+669620Y-1631000D01*
X+1111694Y-1631000D01*
X+1137760Y-1649739D01*
D10*
X+1147920Y-1649739D01*
D12*
X+2008824Y-1649739D01*
X+2014591Y-1643972D01*
X+2032000Y-1651000D01*
D10*
X+1147667Y-1649486D02*
X+1147920Y-1649739D01*
X+1150460Y-1652279D01*
X-147220Y-446880D02*
X-110307Y-409967D01*
X-110307Y-372180D01*
X-46127Y-308000D01*
X-46127Y-287020D01*
X-45720Y-248920D01*
X+367380Y+626820D02*
X+467260Y+726700D01*
X+467260Y+756930D01*
X+469760Y+801380D01*
X+868680Y+995845D02*
X+868680Y+1193800D01*
X+868680Y+1262380D01*
X+868680Y+1320800D01*
X+868680Y+1325880D01*
X+358780Y+390180D02*
X+358780Y+480583D01*
X+557076Y+678879D01*
X+760159Y+678879D01*
X+868680Y+787400D01*
X+868680Y+995845D01*
X+1270000Y+1905000D02*
X+1270000Y+1318404D01*
X+1362317Y+1226087D01*
X+1362317Y+1185318D01*
X+1172844Y+995845D01*
X+868680Y+995845D01*
X+553720Y+1140460D02*
X+553720Y+1326720D01*
X+556000Y+1329000D01*
X+2032000Y-1397000D02*
X+1823919Y-1397000D01*
X+1700170Y-1273251D01*
X+1700170Y-1067106D01*
X+2123503Y-643773D01*
X+2123503Y+1222574D01*
X-266700Y+1882140D02*
X+112860Y+1882140D01*
X+126000Y+1869000D01*
X-929640Y+1049020D02*
X-1226242Y+1049020D01*
X-1489818Y+1312596D01*
X+518780Y+280180D02*
X+773778Y+280180D01*
X+988506Y+494908D01*
X+1416000Y+539000D02*
X+1512651Y+539000D01*
X+1622492Y+648841D01*
X+1622492Y+979432D01*
X+1478471Y+1123453D01*
X+228268Y+96732D02*
X+148394Y+176606D01*
X+178874Y+189000D01*
X+228268Y+96732D02*
X+228268Y+71771D01*
X+268520Y+31520D01*
X-850900Y+1463040D02*
X-1333403Y+1463040D01*
X-1524760Y+1654397D01*
X-1524760Y+1803400D01*
X-1524000Y+1905000D01*
X-1053001Y+1742191D02*
X-992843Y+1682033D01*
X-595133Y+1682033D01*
X-523278Y+1610178D01*
X-377896Y+1610178D01*
X-304370Y+1610178D01*
X-107186Y+1412994D01*
X-1374000Y-21000D02*
X-1374000Y-1211000D01*
X-1384000Y-1221000D01*
X-462280Y+388620D02*
X-556355Y+482695D01*
X-760567Y+482695D01*
X-770593Y+482695D01*
X-792317Y+504419D01*
X-1135380Y+399420D02*
X-1429186Y+399420D01*
X-1450393Y+420627D01*
X-1452880Y+439420D01*
X-1002020Y+233680D02*
X-865314Y+233680D01*
X-850485Y+248509D01*
X-866080Y+234360D01*
X-922020Y+399420D02*
X-922020Y+290386D01*
X-910444Y+278810D01*
X-866080Y+234360D01*
X-462280Y+215900D02*
X-665809Y+215900D01*
X-680037Y+230128D01*
X-693360Y+234360D01*
X-137160Y+15240D02*
X-137160Y+5240D01*
X-339627Y+5240D01*
X-356720Y-12261D01*
X+275940Y+626820D02*
X+275940Y+788940D01*
X+276000Y+789000D01*
X+297040Y+801380D01*
X+258780Y+383540D02*
X+258780Y+390180D01*
X+258780Y+648873D01*
X+264888Y+654981D01*
X+101600Y-309880D02*
X-4000Y-415480D01*
X-4000Y-451000D01*
X+2540Y-444500D01*
D12*
X+36800Y+318200D02*
X+2328Y+318200D01*
X-134000Y+349000D01*
X-54000Y-721000D02*
X+165260Y-721000D01*
X+175260Y-661000D01*
D10*
X+1082040Y+1325880D02*
X+1196000Y+1211920D01*
X+1196000Y+1199000D01*
X-905045Y-615494D02*
X-540263Y-980276D01*
X-540263Y-982802D01*
X-540263Y-987327D01*
D13*
X+1861408Y+480144D03*
X+1778496Y+674383D03*
X-905045Y-615494D03*
X-794930Y+1183060D03*
X-288398Y+937135D03*
X+599868Y-1077979D03*
X+326000Y+159000D03*
X+556000Y+1329000D03*
X+776000Y+419000D03*
X+2123503Y+1222574D03*
X+1416000Y+539000D03*
X+126000Y+1869000D03*
X-1489818Y+1312596D03*
X+988506Y+494908D03*
X+1478471Y+1123453D03*
X+178874Y+189000D03*
X+268520Y+31520D03*
X-1053001Y+1742191D03*
X-107186Y+1412994D03*
X-1374000Y-21000D03*
X-1384000Y-1221000D03*
X-792317Y+504419D03*
D14*
X-134000Y+349000D03*
X-54000Y-721000D03*
D13*
X+1196000Y+1199000D03*
X-540263Y-987327D03*
D11*
X+2289841Y-1900781D02*
X-1767921Y-1900781D01*
X-1767921Y-717549D01*
X-1593849Y-717549D01*
X-1593849Y-739141D01*
X-1648459Y-739141D01*
X-1648459Y-1176019D01*
X-1593849Y-1176019D01*
X-1593849Y-1490956D01*
X-1686559Y-1583666D01*
X-1686559Y-1718334D01*
X-1591334Y-1813559D01*
X-1456666Y-1813559D01*
X-1397000Y-1753893D01*
X-1337334Y-1813559D01*
X-1202666Y-1813559D01*
X-1107441Y-1718334D01*
X-1107441Y-1583666D01*
X-1197611Y-1493496D01*
X-1197611Y-1170939D01*
X-1143001Y-1170939D01*
X-1143001Y-734061D01*
X-1197611Y-734061D01*
X-1197611Y-722629D01*
X-986791Y-722629D01*
X-986791Y-511811D01*
X-1195071Y-511811D01*
X-1195071Y-473709D01*
X-1162051Y-473709D01*
X-1162051Y-367831D01*
X-1161873Y-367653D01*
X-1162051Y-367415D01*
X-1162051Y-188951D01*
X-1019809Y-46709D01*
X-1019809Y-240029D01*
X-808991Y-240029D01*
X-808991Y+10331D01*
X-462129Y+10331D01*
X-462129Y-290390D01*
X-251311Y-290390D01*
X-251311Y-64609D01*
X-236219Y-64609D01*
X-236219Y-162559D01*
X-223519Y-162559D01*
X-223519Y-341471D01*
X-425349Y-341471D01*
X-425349Y-552289D01*
X-41811Y-552289D01*
X-41811Y-549909D01*
X+88901Y-549909D01*
X+88901Y-625229D01*
X+87883Y-634641D01*
X+35653Y-634641D01*
X-2447Y-596541D01*
X-105553Y-596541D01*
X-178459Y-669447D01*
X-178459Y-772553D01*
X-105553Y-845459D01*
X-2447Y-845459D01*
X+35653Y-807359D01*
X+88901Y-807359D01*
X+88901Y-1172411D01*
X+633849Y-1717359D01*
X+1032351Y-1717359D01*
X+1032351Y-1755148D01*
X+1243169Y-1755148D01*
X+1243169Y-1736098D01*
X+1887205Y-1736098D01*
X+1964666Y-1813559D01*
X+2099334Y-1813559D01*
X+2194559Y-1718334D01*
X+2194559Y-1583666D01*
X+2134893Y-1524000D01*
X+2194559Y-1464334D01*
X+2194559Y-1329666D01*
X+2134893Y-1270000D01*
X+2194559Y-1210334D01*
X+2194559Y-1075666D01*
X+2099334Y-980441D01*
X+1964666Y-980441D01*
X+1869441Y-1075666D01*
X+1869441Y-1210334D01*
X+1929107Y-1270000D01*
X+1869441Y-1329666D01*
X+1869441Y-1464334D01*
X+1929107Y-1524000D01*
X+1889727Y-1563380D01*
X+1243169Y-1563380D01*
X+1243169Y-1371610D01*
X+1032351Y-1371610D01*
X+1032351Y-1544641D01*
X+705391Y-1544641D01*
X+261619Y-1100869D01*
X+261619Y-934539D01*
X+972939Y-934539D01*
X+972939Y-472621D01*
X+863655Y-472621D01*
X+747022Y-355988D01*
X+1177330Y-355988D01*
X+1412093Y-590751D01*
X+1496061Y-590751D01*
X+1496061Y-683259D01*
X+1821179Y-683259D01*
X+1821179Y-131099D01*
X+1823719Y-131099D01*
X+1823719Y+179151D01*
X+1914931Y+179151D01*
X+2025849Y+290069D01*
X+2025849Y+890531D01*
X+1593849Y+1322531D01*
X+1593849Y+1744956D01*
X+1651000Y+1802107D01*
X+1710666Y+1742441D01*
X+1845334Y+1742441D01*
X+1905000Y+1802107D01*
X+1964666Y+1742441D01*
X+2099334Y+1742441D01*
X+2194559Y+1837666D01*
X+2194559Y+1972334D01*
X+2099334Y+2067559D01*
X+1964666Y+2067559D01*
X+1905000Y+2007893D01*
X+1845334Y+2067559D01*
X+1710666Y+2067559D01*
X+1651000Y+2007893D01*
X+1591334Y+2067559D01*
X+1456666Y+2067559D01*
X+1397000Y+2007893D01*
X+1337334Y+2067559D01*
X+1202666Y+2067559D01*
X+1143000Y+2007893D01*
X+1083334Y+2067559D01*
X+948666Y+2067559D01*
X+853441Y+1972334D01*
X+853441Y+1837666D01*
X+948666Y+1742441D01*
X+1083334Y+1742441D01*
X+1143000Y+1802107D01*
X+1200151Y+1744956D01*
X+1200151Y+1310759D01*
X+1195941Y+1310759D01*
X+1193799Y+1312901D01*
X+1193799Y+1450339D01*
X+756921Y+1450339D01*
X+756921Y+1201421D01*
X+798831Y+1201421D01*
X+798831Y+816331D01*
X+731228Y+748728D01*
X+575169Y+748728D01*
X+575169Y+906789D01*
X+278629Y+906789D01*
X+278629Y+1035051D01*
X+659129Y+1035051D01*
X+659129Y+1245869D01*
X+311149Y+1245869D01*
X+311149Y+1418589D01*
X+199111Y+1418589D01*
X-157220Y+1774920D01*
X-161291Y+1774920D01*
X-161291Y+1987549D01*
X-372109Y+1987549D01*
X-372109Y+1777546D01*
X-416386Y+1777546D01*
X-530861Y+1892021D01*
X-530861Y+2029459D01*
X-967739Y+2029459D01*
X-967739Y+1974849D01*
X-1109956Y+1974849D01*
X-1202666Y+2067559D01*
X-1337334Y+2067559D01*
X-1397000Y+2007893D01*
X-1456666Y+2067559D01*
X-1591334Y+2067559D01*
X-1686559Y+1972334D01*
X-1686559Y+1837666D01*
X-1594609Y+1745716D01*
X-1594609Y+1625466D01*
X-1362334Y+1393191D01*
X-962659Y+1393191D01*
X-962659Y+1338581D01*
X-525781Y+1338581D01*
X-525781Y+1393191D01*
X-504189Y+1393191D01*
X-504189Y+1184911D01*
X-293371Y+1184911D01*
X-293371Y+1294411D01*
X+8891Y+992149D01*
X+8891Y+758189D01*
X-156209Y+758189D01*
X-156209Y+610869D01*
X-280669Y+610869D01*
X-280669Y+481372D01*
X-359411Y+560114D01*
X-359411Y+1055369D01*
X-570229Y+1055369D01*
X-570229Y+674369D01*
X-717012Y+674369D01*
X-804818Y+762175D01*
X-817881Y+762175D01*
X-817881Y+817879D01*
X-824231Y+817879D01*
X-824231Y+1154429D01*
X-1035049Y+1154429D01*
X-1035049Y+817879D01*
X-1254759Y+817879D01*
X-1254759Y+763269D01*
X-1292836Y+763269D01*
X-1385546Y+855979D01*
X-1520214Y+855979D01*
X-1615439Y+760754D01*
X-1615439Y+626086D01*
X-1555773Y+566420D01*
X-1615439Y+506754D01*
X-1615439Y+372086D01*
X-1520214Y+276861D01*
X-1385546Y+276861D01*
X-1332836Y+329571D01*
X-1280149Y+329571D01*
X-1280149Y+200029D01*
X-1408431Y+200029D01*
X-1408431Y+234949D01*
X-1767921Y+234949D01*
X-1767921Y+2136981D01*
X+2289841Y+2136981D01*
X+2289841Y-1900781D01*
X-935525Y-628119D02*
X-935525Y-602869D01*
X-917670Y-585014D01*
X-892420Y-585014D01*
X-874565Y-602869D01*
X-874565Y-628119D01*
X-892420Y-645974D01*
X-917670Y-645974D01*
X-935525Y-628119D01*
X-825410Y+1170435D02*
X-825410Y+1195685D01*
X-807555Y+1213540D01*
X-782305Y+1213540D01*
X-764450Y+1195685D01*
X-764450Y+1170435D01*
X-782305Y+1152580D01*
X-807555Y+1152580D01*
X-825410Y+1170435D01*
X-318878Y+924510D02*
X-318878Y+949760D01*
X-301023Y+967615D01*
X-275773Y+967615D01*
X-257918Y+949760D01*
X-257918Y+924510D01*
X-275773Y+906655D01*
X-301023Y+906655D01*
X-318878Y+924510D01*
X+569388Y-1090604D02*
X+569388Y-1065354D01*
X+587243Y-1047499D01*
X+612493Y-1047499D01*
X+630348Y-1065354D01*
X+630348Y-1090604D01*
X+612493Y-1108459D01*
X+587243Y-1108459D01*
X+569388Y-1090604D01*
X+525520Y+1316375D02*
X+525520Y+1341625D01*
X+543375Y+1359480D01*
X+568625Y+1359480D01*
X+586480Y+1341625D01*
X+586480Y+1316375D01*
X+568625Y+1298520D01*
X+543375Y+1298520D01*
X+525520Y+1316375D01*
X+2093023Y+1209949D02*
X+2093023Y+1235199D01*
X+2110878Y+1253054D01*
X+2136128Y+1253054D01*
X+2153983Y+1235199D01*
X+2153983Y+1209949D01*
X+2136128Y+1192094D01*
X+2110878Y+1192094D01*
X+2093023Y+1209949D01*
X+95520Y+1856375D02*
X+95520Y+1881625D01*
X+113375Y+1899480D01*
X+138625Y+1899480D01*
X+156480Y+1881625D01*
X+156480Y+1856375D01*
X+138625Y+1838520D01*
X+113375Y+1838520D01*
X+95520Y+1856375D01*
X-1519028Y+1300497D02*
X-1519028Y+1324695D01*
X-1501917Y+1341806D01*
X-1477719Y+1341806D01*
X-1460608Y+1324695D01*
X-1460608Y+1300497D01*
X-1477719Y+1283386D01*
X-1501917Y+1283386D01*
X-1519028Y+1300497D01*
X-570743Y-999952D02*
X-570743Y-974702D01*
X-552888Y-956847D01*
X-527638Y-956847D01*
X-509783Y-974702D01*
X-509783Y-999952D01*
X-527638Y-1017807D01*
X-552888Y-1017807D01*
X-570743Y-999952D01*
X-967739Y+1780541D02*
X-616941Y+1780541D01*
X-474248Y+1637848D01*
X-372109Y+1637848D01*
X-372109Y+1604011D01*
X-183871Y+1604011D01*
X+100331Y+1319809D01*
X+100331Y+1098269D01*
X-293371Y+1491971D01*
X-293371Y+1568449D01*
X-504189Y+1568449D01*
X-504189Y+1532889D01*
X-525781Y+1532889D01*
X-525781Y+1587499D01*
X-962659Y+1587499D01*
X-962659Y+1532889D01*
X-1304472Y+1532889D01*
X-1454911Y+1683328D01*
X-1454911Y+1744196D01*
X-1397000Y+1802107D01*
X-1337334Y+1742441D01*
X-1202666Y+1742441D01*
X-1109956Y+1835151D01*
X-967739Y+1835151D01*
X-967739Y+1780541D01*
X-1083481Y+1729566D02*
X-1083481Y+1754816D01*
X-1065626Y+1772671D01*
X-1040376Y+1772671D01*
X-1022521Y+1754816D01*
X-1022521Y+1729566D01*
X-1040376Y+1711711D01*
X-1065626Y+1711711D01*
X-1083481Y+1729566D01*
X-137666Y+1400369D02*
X-137666Y+1425619D01*
X-119811Y+1443474D01*
X-94561Y+1443474D01*
X-76706Y+1425619D01*
X-76706Y+1400369D01*
X-94561Y+1382514D01*
X-119811Y+1382514D01*
X-137666Y+1400369D01*
X+1454151Y+1744956D02*
X+1454151Y+1264669D01*
X+1886151Y+832669D01*
X+1886151Y+724779D01*
X+1824788Y+786142D01*
X+1732204Y+786142D01*
X+1666737Y+720675D01*
X+1666737Y+661404D01*
X+1496869Y+491536D01*
X+1100265Y+491536D01*
X+1100265Y+537211D01*
X+1263371Y+537211D01*
X+1333221Y+607061D01*
X+1559559Y+607061D01*
X+1559559Y+932179D01*
X+1234441Y+932179D01*
X+1234441Y+705841D01*
X+1205509Y+676909D01*
X+856969Y+676909D01*
X+938529Y+758469D01*
X+938529Y+925996D01*
X+1201775Y+925996D01*
X+1432166Y+1156387D01*
X+1432166Y+1255018D01*
X+1339849Y+1347335D01*
X+1339849Y+1744956D01*
X+1397000Y+1802107D01*
X+1454151Y+1744956D01*
X+1385520Y+526375D02*
X+1385520Y+551625D01*
X+1403375Y+569480D01*
X+1428625Y+569480D01*
X+1446480Y+551625D01*
X+1446480Y+526375D01*
X+1428625Y+508520D01*
X+1403375Y+508520D01*
X+1385520Y+526375D01*
X+1447991Y+1110828D02*
X+1447991Y+1136078D01*
X+1465846Y+1153933D01*
X+1491096Y+1153933D01*
X+1508951Y+1136078D01*
X+1508951Y+1110828D01*
X+1491096Y+1092973D01*
X+1465846Y+1092973D01*
X+1447991Y+1110828D01*
X-1254759Y+568961D02*
X-817881Y+568961D01*
X-817881Y+577678D01*
X-742949Y+502746D01*
X-742949Y+463551D01*
X-567689Y+463551D01*
X-567689Y+285749D01*
X-587951Y+285749D01*
X-587951Y+339769D01*
X-810261Y+339769D01*
X-810261Y+479258D01*
X-804942Y+473939D01*
X-779692Y+473939D01*
X-761837Y+491794D01*
X-761837Y+517044D01*
X-779692Y+534899D01*
X-804942Y+534899D01*
X-815962Y+523879D01*
X-1247139Y+523879D01*
X-1247139Y+469269D01*
X-1290321Y+469269D01*
X-1290321Y+506754D01*
X-1349987Y+566420D01*
X-1292836Y+623571D01*
X-1254759Y+623571D01*
X-1254759Y+568961D01*
X+876747Y+481929D02*
X+806480Y+411662D01*
X+806480Y+431625D01*
X+788625Y+449480D01*
X+763375Y+449480D01*
X+745520Y+431625D01*
X+745520Y+406375D01*
X+763375Y+388520D01*
X+783338Y+388520D01*
X+744847Y+350029D01*
X+592239Y+350029D01*
X+592239Y+353639D01*
X+482239Y+353639D01*
X+482239Y+419898D01*
X+599552Y+537211D01*
X+876747Y+537211D01*
X+876747Y+481929D01*
X+35321Y-149861D02*
X-38101Y-149861D01*
X-38101Y-93279D01*
X+35321Y-93279D01*
X+35321Y-149861D01*
X-1583689Y-82551D02*
X-1616709Y-82551D01*
X-1616709Y-466089D01*
X-1596389Y-466089D01*
X-1596389Y-506731D01*
X-1767921Y-506731D01*
X-1767921Y+24131D01*
X-1583689Y+24131D01*
X-1583689Y-82551D01*
X-1260831Y-90171D02*
X-1372869Y-90171D01*
X-1372869Y-473709D01*
X-1334769Y-473709D01*
X-1334769Y-511811D01*
X-1370329Y-511811D01*
X-1370329Y-722629D01*
X-1337309Y-722629D01*
X-1337309Y-734061D01*
X-1391919Y-734061D01*
X-1391919Y-1170939D01*
X-1337309Y-1170939D01*
X-1337309Y-1488441D01*
X-1337334Y-1488441D01*
X-1397000Y-1548107D01*
X-1454151Y-1490956D01*
X-1454151Y-1176019D01*
X-1399541Y-1176019D01*
X-1399541Y-739141D01*
X-1454151Y-739141D01*
X-1454151Y-717549D01*
X-1421131Y-717549D01*
X-1421131Y-506731D01*
X-1456691Y-506731D01*
X-1456691Y-466089D01*
X-1405891Y-466089D01*
X-1405891Y-82551D01*
X-1443991Y-82551D01*
X-1443991Y+24131D01*
X-1408431Y+24131D01*
X-1408431Y+60331D01*
X-1110329Y+60331D01*
X-1260831Y-90171D01*
X-1404480Y-33625D02*
X-1404480Y-8375D01*
X-1386625Y+9480D01*
X-1361375Y+9480D01*
X-1343520Y-8375D01*
X-1343520Y-33625D01*
X-1361375Y-51480D01*
X-1386625Y-51480D01*
X-1404480Y-33625D01*
X-1414480Y-1233625D02*
X-1414480Y-1208375D01*
X-1396625Y-1190520D01*
X-1371375Y-1190520D01*
X-1353520Y-1208375D01*
X-1353520Y-1233625D01*
X-1371375Y-1251480D01*
X-1396625Y-1251480D01*
X-1414480Y-1233625D01*
X+601980Y-934539D02*
X+601980Y-703580D01*
X+22780Y-93279D02*
X+22780Y-19820D01*
X+2194559Y-1397000D02*
X+2032000Y-1397000D01*
X+1869441Y-1397000D02*
X+2032000Y-1397000D01*
X-398780Y+1184911D02*
X-398780Y+1290320D01*
X-293371Y+1290320D02*
X-398780Y+1290320D01*
X-504189Y+1290320D02*
X-398780Y+1290320D01*
X-266700Y+1987549D02*
X-266700Y+1882140D01*
X-372109Y+1882140D02*
X-266700Y+1882140D01*
X-161291Y+1882140D02*
X-266700Y+1882140D01*
X-986791Y-617220D02*
X-1092200Y-617220D01*
X-1092200Y-722629D02*
X-1092200Y-617220D01*
X-1092200Y-511811D02*
X-1092200Y-617220D01*
X-1699260Y-717549D02*
X-1699260Y-612140D01*
X-1699260Y-506731D02*
X-1699260Y-612140D01*
X-425349Y-446880D02*
X-319940Y-446880D01*
X-319940Y-552289D02*
X-319940Y-446880D01*
X-319940Y-341471D02*
X-319940Y-446880D01*
X-223519Y-248920D02*
X-137160Y-248920D01*
X+297040Y+906789D02*
X+297040Y+801380D01*
X-156209Y+652780D02*
X-50800Y+652780D01*
X-50800Y+758189D02*
X-50800Y+652780D01*
X+659129Y+1140460D02*
X+553720Y+1140460D01*
X+553720Y+1245869D02*
X+553720Y+1140460D01*
X+553720Y+1035051D02*
X+553720Y+1140460D01*
X-914400Y-240029D02*
X-914400Y-134620D01*
X-1019809Y-134620D02*
X-914400Y-134620D01*
X-808991Y-134620D02*
X-914400Y-134620D01*
X-1686560Y+234949D02*
X-1686560Y+129540D01*
X-1686560Y+24131D02*
X-1686560Y+129540D01*
X+1137760Y-1371610D02*
X+1137760Y-1477019D01*
X+1032351Y-1477019D02*
X+1137760Y-1477019D01*
X+1243169Y-1477019D02*
X+1137760Y-1477019D01*
X-356720Y-290390D02*
X-356720Y-184981D01*
X-462129Y-184981D02*
X-356720Y-184981D01*
X-251311Y-184981D02*
X-356720Y-184981D01*
X-236219Y-76200D02*
X-137160Y-76200D01*
X-280669Y+505460D02*
X-175260Y+505460D01*
X-175260Y+610869D02*
X-175260Y+505460D01*
X-464820Y+1055369D02*
X-464820Y+949960D01*
X-359411Y+949960D02*
X-464820Y+949960D01*
X-570229Y+949960D02*
X-464820Y+949960D01*
X-567689Y+388620D02*
X-462280Y+388620D01*
X-929640Y+1154429D02*
X-929640Y+1049020D01*
X-824231Y+1049020D02*
X-929640Y+1049020D01*
X-1035049Y+1049020D02*
X-929640Y+1049020D01*
X-1280149Y+233680D02*
X-1174740Y+233680D01*
X+2540Y-549909D02*
X+2540Y-444500D01*
X+126000Y+269000D02*
X+386000Y+269000D01*
X+386000Y-11000D01*
X+126000Y-12180D01*
X+126000Y+269000D01*
X+295520Y+146375D02*
X+295520Y+171625D01*
X+313375Y+189480D01*
X+338625Y+189480D01*
X+356480Y+171625D01*
X+356480Y+146375D01*
X+338625Y+128520D01*
X+313375Y+128520D01*
X+295520Y+146375D01*
X+148394Y+176375D02*
X+148394Y+201625D01*
X+166249Y+219480D01*
X+191499Y+219480D01*
X+209354Y+201625D01*
X+209354Y+176375D01*
X+191499Y+158520D01*
X+166249Y+158520D01*
X+148394Y+176375D01*
X+238040Y+18895D02*
X+238040Y+44145D01*
X+255895Y+62000D01*
X+281145Y+62000D01*
X+299000Y+44145D01*
X+299000Y+18895D01*
X+281145Y+1040D01*
X+255895Y+1040D01*
X+238040Y+18895D01*
D15*
X+601980Y-703580D03*
D16*
X+351980Y-703580D03*
X+851980Y-703580D03*
D17*
X+408780Y+390180D03*
X+358780Y+390180D03*
X+308780Y+390180D03*
X+258780Y+390180D03*
X+208780Y+390180D03*
X+158780Y+390180D03*
X+108780Y+390180D03*
D18*
X-1220Y+280180D03*
X-1220Y+230180D03*
X-1220Y+180180D03*
X-1220Y+130180D03*
X-1220Y+80180D03*
X-1220Y+30180D03*
X-1220Y-19820D03*
D19*
X+108780Y-129820D03*
X+158780Y-129820D03*
X+208780Y-129820D03*
X+258780Y-129820D03*
X+308780Y-129820D03*
X+358780Y-129820D03*
X+408780Y-129820D03*
D70*
X+518780Y-19820D03*
X+518780Y+30180D03*
X+518780Y+80180D03*
X+518780Y+130180D03*
X+518780Y+180180D03*
X+518780Y+230180D03*
X+518780Y+280180D03*
D71*
X+367380Y+626820D03*
X+275940Y+626820D03*
D20*
X-1524000Y-1651000D03*
X-1270000Y-1651000D03*
X+2032000Y-1651000D03*
X+2032000Y-1397000D03*
X+2032000Y-1143000D03*
X+2032000Y+1905000D03*
X+1778000Y+1905000D03*
X+1524000Y+1905000D03*
X+1270000Y+1905000D03*
X+1016000Y+1905000D03*
X-1270000Y+1905000D03*
X-1524000Y+1905000D03*
D21*
X-850900Y+1463040D03*
X-637540Y+1463040D03*
X-855980Y+1905000D03*
X-642620Y+1905000D03*
D22*
X-398780Y+1290320D03*
X-398780Y+1463040D03*
X-266700Y+1882140D03*
X-266700Y+1709420D03*
X+114300Y+812800D03*
X+114300Y+985520D03*
X+205740Y+1140460D03*
X+205740Y+1313180D03*
D23*
X-1267460Y-1059180D03*
X-1267460Y-845820D03*
X-1524000Y-1064260D03*
X-1524000Y-850900D03*
D22*
X-1264920Y-617220D03*
X-1092200Y-617220D03*
X-1699260Y-612140D03*
X-1526540Y-612140D03*
X-1267460Y-195580D03*
X-1267460Y-368300D03*
X-1511300Y-187960D03*
X-1511300Y-360680D03*
D21*
X+1082040Y+1325880D03*
X+868680Y+1325880D03*
D71*
X+952500Y+1109980D03*
X+1043940Y+1109980D03*
D22*
X-319940Y-446880D03*
X-147220Y-446880D03*
D71*
X-45720Y-248920D03*
X-137160Y-248920D03*
D22*
X+297040Y+801380D03*
X+469760Y+801380D03*
X-50800Y+652780D03*
X+121920Y+652780D03*
X+553720Y+1140460D03*
X+381000Y+1140460D03*
X-914400Y+38100D03*
X-914400Y-134620D03*
X-1513840Y+129540D03*
X-1686560Y+129540D03*
X+1137760Y-1477019D03*
X+1137760Y-1649739D03*
X-356720Y-12261D03*
X-356720Y-184981D03*
D24*
X-137160Y+15240D03*
X-137160Y-76200D03*
D71*
X+101600Y-309880D03*
X+193040Y-309880D03*
D22*
X-2540Y+505460D03*
X-175260Y+505460D03*
X-464820Y+777240D03*
X-464820Y+949960D03*
X-462280Y+388620D03*
X-462280Y+215900D03*
X-464820Y+568960D03*
X-637540Y+568960D03*
X-693360Y+234360D03*
X-866080Y+234360D03*
X-929640Y+876300D03*
X-929640Y+1049020D03*
X-1174740Y+233680D03*
X-1002020Y+233680D03*
D21*
X-1143000Y+693420D03*
X-929640Y+693420D03*
X-1135380Y+399420D03*
X-922020Y+399420D03*
D20*
X-1452880Y+439420D03*
X-1452880Y+693420D03*
D25*
X+1397000Y+769620D03*
X+1661160Y+31460D03*
X+1658620Y-520700D03*
X+1658620Y-243840D03*
D22*
X+2540Y-444500D03*
X+175260Y-444500D03*
D11*
X-1839040Y-1971900D02*
X+2360960Y-1971900D01*
X+2360960Y+2208100D01*
X-1839040Y+2208100D01*
X-1839040Y-1971900D01*
M02*
