G04 PROTEUS RS274X GERBER FILE*
%FSLAX45Y45*%
%MOMM*%
G01*
%ADD10C,0.177800*%
%ADD12C,0.508000*%
%ADD13C,1.016000*%
%ADD14C,1.270000*%
%ADD26C,0.254000*%
%ADD20C,2.032000*%
%ADD25R,2.032000X2.032000*%
%ADD11C,0.203200*%
%TD.AperFunction*%
G36*
X+2287301Y-1898241D02*
X-1765381Y-1898241D01*
X-1765381Y+2134441D01*
X+2287301Y+2134441D01*
X+2287301Y-1898241D01*
G37*
%LPC*%
G36*
X-1104901Y-1582614D02*
X-1104901Y-1719386D01*
X-1201614Y-1816099D01*
X-1338386Y-1816099D01*
X-1397000Y-1757485D01*
X-1455614Y-1816099D01*
X-1592386Y-1816099D01*
X-1689099Y-1719386D01*
X-1689099Y-1582614D01*
X-1592386Y-1485901D01*
X-1455614Y-1485901D01*
X-1397000Y-1544515D01*
X-1338386Y-1485901D01*
X-1201614Y-1485901D01*
X-1104901Y-1582614D01*
G37*
G36*
X+2197099Y-1074614D02*
X+2197099Y-1211386D01*
X+2138485Y-1270000D01*
X+2197099Y-1328614D01*
X+2197099Y-1465386D01*
X+2138485Y-1524000D01*
X+2197099Y-1582614D01*
X+2197099Y-1719386D01*
X+2100386Y-1816099D01*
X+1963614Y-1816099D01*
X+1866901Y-1719386D01*
X+1866901Y-1582614D01*
X+1925515Y-1524000D01*
X+1866901Y-1465386D01*
X+1866901Y-1328614D01*
X+1925515Y-1270000D01*
X+1866901Y-1211386D01*
X+1866901Y-1074614D01*
X+1963614Y-977901D01*
X+2100386Y-977901D01*
X+2197099Y-1074614D01*
G37*
G36*
X+2197099Y+1973386D02*
X+2197099Y+1836614D01*
X+2106608Y+1746123D01*
X+2106608Y+1252376D01*
X+2109826Y+1255594D01*
X+2137180Y+1255594D01*
X+2156523Y+1236251D01*
X+2156523Y+1208897D01*
X+2137180Y+1189554D01*
X+2109826Y+1189554D01*
X+2106608Y+1192772D01*
X+2106608Y+622972D01*
X+1975707Y+492071D01*
X+1975707Y+432800D01*
X+1908752Y+365845D01*
X+1814064Y+365845D01*
X+1747109Y+432800D01*
X+1747109Y+527488D01*
X+1779705Y+560084D01*
X+1731152Y+560084D01*
X+1664197Y+627039D01*
X+1664197Y+721727D01*
X+1706107Y+763637D01*
X+1706107Y+1743408D01*
X+1651000Y+1798515D01*
X+1592386Y+1739901D01*
X+1455614Y+1739901D01*
X+1397000Y+1798515D01*
X+1338386Y+1739901D01*
X+1201614Y+1739901D01*
X+1143000Y+1798515D01*
X+1098389Y+1753904D01*
X+1098389Y+1559017D01*
X+1060895Y+1521523D01*
X+1060895Y+584162D01*
X+1077504Y+567552D01*
X+1123611Y+613659D01*
X+1123611Y+1109746D01*
X+1081701Y+1151656D01*
X+1081701Y+1246344D01*
X+1148656Y+1313299D01*
X+1243344Y+1313299D01*
X+1310299Y+1246344D01*
X+1310299Y+1151656D01*
X+1268389Y+1109746D01*
X+1268389Y+934719D01*
X+1562099Y+934719D01*
X+1562099Y+604521D01*
X+1268389Y+604521D01*
X+1268389Y+553693D01*
X+59650Y-655046D01*
X+72999Y-668395D01*
X+72999Y-773605D01*
X-1395Y-847999D01*
X-106605Y-847999D01*
X-180999Y-773605D01*
X-180999Y-668395D01*
X-157105Y-644501D01*
X-187795Y-182454D01*
X-218783Y+254179D01*
X-260999Y+296395D01*
X-260999Y+401605D01*
X-186605Y+475999D01*
X-81395Y+475999D01*
X-7001Y+401605D01*
X-7001Y+296395D01*
X-37158Y+266238D01*
X-10205Y-139546D01*
X+15017Y-494935D01*
X+915862Y+405910D01*
X+874207Y+447564D01*
X+874207Y+542252D01*
X+916117Y+584162D01*
X+916117Y+1581489D01*
X+953611Y+1618983D01*
X+953611Y+1739901D01*
X+947614Y+1739901D01*
X+850901Y+1836614D01*
X+850901Y+1973386D01*
X+947614Y+2070099D01*
X+1084386Y+2070099D01*
X+1143000Y+2011485D01*
X+1201614Y+2070099D01*
X+1338386Y+2070099D01*
X+1397000Y+2011485D01*
X+1455614Y+2070099D01*
X+1592386Y+2070099D01*
X+1651000Y+2011485D01*
X+1709614Y+2070099D01*
X+1846386Y+2070099D01*
X+1905000Y+2011485D01*
X+1963614Y+2070099D01*
X+2100386Y+2070099D01*
X+2197099Y+1973386D01*
G37*
G36*
X-1104901Y+1973386D02*
X-1104901Y+1836614D01*
X-1201614Y+1739901D01*
X-1338386Y+1739901D01*
X-1397000Y+1798515D01*
X-1455614Y+1739901D01*
X-1592386Y+1739901D01*
X-1689099Y+1836614D01*
X-1689099Y+1973386D01*
X-1592386Y+2070099D01*
X-1455614Y+2070099D01*
X-1397000Y+2011485D01*
X-1338386Y+2070099D01*
X-1201614Y+2070099D01*
X-1104901Y+1973386D01*
G37*
G36*
X-1287781Y+761806D02*
X-1287781Y+625034D01*
X-1346395Y+566420D01*
X-1287781Y+507806D01*
X-1287781Y+371034D01*
X-1384494Y+274321D01*
X-1521266Y+274321D01*
X-1617979Y+371034D01*
X-1617979Y+507806D01*
X-1559365Y+566420D01*
X-1617979Y+625034D01*
X-1617979Y+761806D01*
X-1521266Y+858519D01*
X-1384494Y+858519D01*
X-1287781Y+761806D01*
G37*
G36*
X+1826259Y-133639D02*
X+1823719Y-133639D01*
X+1823719Y-685799D01*
X+1493521Y-685799D01*
X+1493521Y-78741D01*
X+1496061Y-78741D01*
X+1496061Y+196559D01*
X+1826259Y+196559D01*
X+1826259Y-133639D01*
G37*
G36*
X-938065Y-629171D02*
X-938065Y-601817D01*
X-918722Y-582474D01*
X-891368Y-582474D01*
X-872025Y-601817D01*
X-872025Y-629171D01*
X-891368Y-648514D01*
X-918722Y-648514D01*
X-938065Y-629171D01*
G37*
G36*
X-827950Y+1169383D02*
X-827950Y+1196737D01*
X-808607Y+1216080D01*
X-781253Y+1216080D01*
X-761910Y+1196737D01*
X-761910Y+1169383D01*
X-781253Y+1150040D01*
X-808607Y+1150040D01*
X-827950Y+1169383D01*
G37*
G36*
X-321418Y+923458D02*
X-321418Y+950812D01*
X-302075Y+970155D01*
X-274721Y+970155D01*
X-255378Y+950812D01*
X-255378Y+923458D01*
X-274721Y+904115D01*
X-302075Y+904115D01*
X-321418Y+923458D01*
G37*
G36*
X+566848Y-1091656D02*
X+566848Y-1064302D01*
X+586191Y-1044959D01*
X+613545Y-1044959D01*
X+632888Y-1064302D01*
X+632888Y-1091656D01*
X+613545Y-1110999D01*
X+586191Y-1110999D01*
X+566848Y-1091656D01*
G37*
G36*
X+292980Y+145323D02*
X+292980Y+172677D01*
X+312323Y+192020D01*
X+339677Y+192020D01*
X+359020Y+172677D01*
X+359020Y+145323D01*
X+339677Y+125980D01*
X+312323Y+125980D01*
X+292980Y+145323D01*
G37*
G36*
X+522980Y+1315323D02*
X+522980Y+1342677D01*
X+542323Y+1362020D01*
X+569677Y+1362020D01*
X+589020Y+1342677D01*
X+589020Y+1315323D01*
X+569677Y+1295980D01*
X+542323Y+1295980D01*
X+522980Y+1315323D01*
G37*
G36*
X+742980Y+405323D02*
X+742980Y+432677D01*
X+762323Y+452020D01*
X+789677Y+452020D01*
X+809020Y+432677D01*
X+809020Y+405323D01*
X+789677Y+385980D01*
X+762323Y+385980D01*
X+742980Y+405323D01*
G37*
G36*
X+1382980Y+525323D02*
X+1382980Y+552677D01*
X+1402323Y+572020D01*
X+1429677Y+572020D01*
X+1449020Y+552677D01*
X+1449020Y+525323D01*
X+1429677Y+505980D01*
X+1402323Y+505980D01*
X+1382980Y+525323D01*
G37*
G36*
X+92980Y+1855323D02*
X+92980Y+1882677D01*
X+112323Y+1902020D01*
X+139677Y+1902020D01*
X+159020Y+1882677D01*
X+159020Y+1855323D01*
X+139677Y+1835980D01*
X+112323Y+1835980D01*
X+92980Y+1855323D01*
G37*
G36*
X-1521568Y+1299445D02*
X-1521568Y+1325747D01*
X-1502969Y+1344346D01*
X-1476667Y+1344346D01*
X-1458068Y+1325747D01*
X-1458068Y+1299445D01*
X-1476667Y+1280846D01*
X-1502969Y+1280846D01*
X-1521568Y+1299445D01*
G37*
G36*
X+1445451Y+1109776D02*
X+1445451Y+1137130D01*
X+1464794Y+1156473D01*
X+1492148Y+1156473D01*
X+1511491Y+1137130D01*
X+1511491Y+1109776D01*
X+1492148Y+1090433D01*
X+1464794Y+1090433D01*
X+1445451Y+1109776D01*
G37*
G36*
X+145854Y+175323D02*
X+145854Y+202677D01*
X+165197Y+222020D01*
X+192551Y+222020D01*
X+211894Y+202677D01*
X+211894Y+175323D01*
X+192551Y+155980D01*
X+165197Y+155980D01*
X+145854Y+175323D01*
G37*
G36*
X+235500Y+17843D02*
X+235500Y+45197D01*
X+254843Y+64540D01*
X+282197Y+64540D01*
X+301540Y+45197D01*
X+301540Y+17843D01*
X+282197Y-1500D01*
X+254843Y-1500D01*
X+235500Y+17843D01*
G37*
G36*
X-1086021Y+1728514D02*
X-1086021Y+1755868D01*
X-1066678Y+1775211D01*
X-1039324Y+1775211D01*
X-1019981Y+1755868D01*
X-1019981Y+1728514D01*
X-1039324Y+1709171D01*
X-1066678Y+1709171D01*
X-1086021Y+1728514D01*
G37*
G36*
X-140206Y+1399317D02*
X-140206Y+1426671D01*
X-120863Y+1446014D01*
X-93509Y+1446014D01*
X-74166Y+1426671D01*
X-74166Y+1399317D01*
X-93509Y+1379974D01*
X-120863Y+1379974D01*
X-140206Y+1399317D01*
G37*
G36*
X-1407020Y-34677D02*
X-1407020Y-7323D01*
X-1387677Y+12020D01*
X-1360323Y+12020D01*
X-1340980Y-7323D01*
X-1340980Y-34677D01*
X-1360323Y-54020D01*
X-1387677Y-54020D01*
X-1407020Y-34677D01*
G37*
G36*
X-1417020Y-1234677D02*
X-1417020Y-1207323D01*
X-1397677Y-1187980D01*
X-1370323Y-1187980D01*
X-1350980Y-1207323D01*
X-1350980Y-1234677D01*
X-1370323Y-1254020D01*
X-1397677Y-1254020D01*
X-1417020Y-1234677D01*
G37*
G36*
X-825337Y+490742D02*
X-825337Y+518096D01*
X-805994Y+537439D01*
X-778640Y+537439D01*
X-759297Y+518096D01*
X-759297Y+490742D01*
X-778640Y+471399D01*
X-805994Y+471399D01*
X-825337Y+490742D01*
G37*
G36*
X-573283Y-1001004D02*
X-573283Y-973650D01*
X-553940Y-954307D01*
X-526586Y-954307D01*
X-507243Y-973650D01*
X-507243Y-1001004D01*
X-526586Y-1020347D01*
X-553940Y-1020347D01*
X-573283Y-1001004D01*
G37*
%LPD*%
D10*
X+1861408Y+480144D02*
X+2034219Y+652955D01*
X+2034219Y+1803400D01*
X+2032000Y+1905000D01*
X+1778496Y+674383D02*
X+1778496Y+1887322D01*
X+1804580Y+1913406D01*
X+1778000Y+1905000D01*
X+556000Y+1329000D02*
X+556000Y+639000D01*
X+776000Y+419000D01*
X+2123503Y+1222574D02*
X+2123503Y+305966D01*
X+2134547Y+294922D01*
X+2118625Y+279000D01*
X+1606000Y+279000D01*
X+1416000Y+469000D01*
X+1416000Y+539000D01*
X+988506Y+494908D02*
X+988506Y+1551506D01*
X+1026000Y+1589000D01*
X+1026000Y+1803400D01*
X+1016000Y+1905000D01*
X-1489818Y+1312596D02*
X-1060223Y+1742191D01*
X-1053001Y+1742191D01*
X-905045Y-615494D02*
X-1374000Y-146539D01*
X-1374000Y-21000D01*
X-794930Y+1183060D02*
X-794930Y+507032D01*
X-792317Y+504419D01*
D12*
X-134000Y+349000D02*
X-64000Y-671000D01*
X-54000Y-721000D01*
D10*
X+1196000Y+1199000D02*
X+1196000Y+583676D01*
X-37479Y-649803D01*
X-54000Y-721000D01*
D13*
X+1861408Y+480144D03*
X+1778496Y+674383D03*
X-905045Y-615494D03*
X-794930Y+1183060D03*
X-288398Y+937135D03*
X+599868Y-1077979D03*
X+326000Y+159000D03*
X+556000Y+1329000D03*
X+776000Y+419000D03*
X+2123503Y+1222574D03*
X+1416000Y+539000D03*
X+126000Y+1869000D03*
X-1489818Y+1312596D03*
X+988506Y+494908D03*
X+1478471Y+1123453D03*
X+178874Y+189000D03*
X+268520Y+31520D03*
X-1053001Y+1742191D03*
X-107186Y+1412994D03*
X-1374000Y-21000D03*
X-1384000Y-1221000D03*
X-792317Y+504419D03*
D14*
X-134000Y+349000D03*
X-54000Y-721000D03*
D13*
X+1196000Y+1199000D03*
X-540263Y-987327D03*
D26*
X+2287301Y-1898241D02*
X-1765381Y-1898241D01*
X-1765381Y+2134441D01*
X+2287301Y+2134441D01*
X+2287301Y-1898241D01*
X-1104901Y-1582614D02*
X-1104901Y-1719386D01*
X-1201614Y-1816099D01*
X-1338386Y-1816099D01*
X-1397000Y-1757485D01*
X-1455614Y-1816099D01*
X-1592386Y-1816099D01*
X-1689099Y-1719386D01*
X-1689099Y-1582614D01*
X-1592386Y-1485901D01*
X-1455614Y-1485901D01*
X-1397000Y-1544515D01*
X-1338386Y-1485901D01*
X-1201614Y-1485901D01*
X-1104901Y-1582614D01*
X+2197099Y-1074614D02*
X+2197099Y-1211386D01*
X+2138485Y-1270000D01*
X+2197099Y-1328614D01*
X+2197099Y-1465386D01*
X+2138485Y-1524000D01*
X+2197099Y-1582614D01*
X+2197099Y-1719386D01*
X+2100386Y-1816099D01*
X+1963614Y-1816099D01*
X+1866901Y-1719386D01*
X+1866901Y-1582614D01*
X+1925515Y-1524000D01*
X+1866901Y-1465386D01*
X+1866901Y-1328614D01*
X+1925515Y-1270000D01*
X+1866901Y-1211386D01*
X+1866901Y-1074614D01*
X+1963614Y-977901D01*
X+2100386Y-977901D01*
X+2197099Y-1074614D01*
X+2197099Y+1973386D02*
X+2197099Y+1836614D01*
X+2106608Y+1746123D01*
X+2106608Y+1252376D01*
X+2109826Y+1255594D01*
X+2137180Y+1255594D01*
X+2156523Y+1236251D01*
X+2156523Y+1208897D01*
X+2137180Y+1189554D01*
X+2109826Y+1189554D01*
X+2106608Y+1192772D01*
X+2106608Y+622972D01*
X+1975707Y+492071D01*
X+1975707Y+432800D01*
X+1908752Y+365845D01*
X+1814064Y+365845D01*
X+1747109Y+432800D01*
X+1747109Y+527488D01*
X+1779705Y+560084D01*
X+1731152Y+560084D01*
X+1664197Y+627039D01*
X+1664197Y+721727D01*
X+1706107Y+763637D01*
X+1706107Y+1743408D01*
X+1651000Y+1798515D01*
X+1592386Y+1739901D01*
X+1455614Y+1739901D01*
X+1397000Y+1798515D01*
X+1338386Y+1739901D01*
X+1201614Y+1739901D01*
X+1143000Y+1798515D01*
X+1098389Y+1753904D01*
X+1098389Y+1559017D01*
X+1060895Y+1521523D01*
X+1060895Y+584162D01*
X+1077504Y+567552D01*
X+1123611Y+613659D01*
X+1123611Y+1109746D01*
X+1081701Y+1151656D01*
X+1081701Y+1246344D01*
X+1148656Y+1313299D01*
X+1243344Y+1313299D01*
X+1310299Y+1246344D01*
X+1310299Y+1151656D01*
X+1268389Y+1109746D01*
X+1268389Y+934719D01*
X+1562099Y+934719D01*
X+1562099Y+604521D01*
X+1268389Y+604521D01*
X+1268389Y+553693D01*
X+59650Y-655046D01*
X+72999Y-668395D01*
X+72999Y-773605D01*
X-1395Y-847999D01*
X-106605Y-847999D01*
X-180999Y-773605D01*
X-180999Y-668395D01*
X-157105Y-644501D01*
X-187795Y-182454D01*
X-218783Y+254179D01*
X-260999Y+296395D01*
X-260999Y+401605D01*
X-186605Y+475999D01*
X-81395Y+475999D01*
X-7001Y+401605D01*
X-7001Y+296395D01*
X-37158Y+266238D01*
X-10205Y-139546D01*
X+15017Y-494935D01*
X+915862Y+405910D01*
X+874207Y+447564D01*
X+874207Y+542252D01*
X+916117Y+584162D01*
X+916117Y+1581489D01*
X+953611Y+1618983D01*
X+953611Y+1739901D01*
X+947614Y+1739901D01*
X+850901Y+1836614D01*
X+850901Y+1973386D01*
X+947614Y+2070099D01*
X+1084386Y+2070099D01*
X+1143000Y+2011485D01*
X+1201614Y+2070099D01*
X+1338386Y+2070099D01*
X+1397000Y+2011485D01*
X+1455614Y+2070099D01*
X+1592386Y+2070099D01*
X+1651000Y+2011485D01*
X+1709614Y+2070099D01*
X+1846386Y+2070099D01*
X+1905000Y+2011485D01*
X+1963614Y+2070099D01*
X+2100386Y+2070099D01*
X+2197099Y+1973386D01*
X-1104901Y+1973386D02*
X-1104901Y+1836614D01*
X-1201614Y+1739901D01*
X-1338386Y+1739901D01*
X-1397000Y+1798515D01*
X-1455614Y+1739901D01*
X-1592386Y+1739901D01*
X-1689099Y+1836614D01*
X-1689099Y+1973386D01*
X-1592386Y+2070099D01*
X-1455614Y+2070099D01*
X-1397000Y+2011485D01*
X-1338386Y+2070099D01*
X-1201614Y+2070099D01*
X-1104901Y+1973386D01*
X-1287781Y+761806D02*
X-1287781Y+625034D01*
X-1346395Y+566420D01*
X-1287781Y+507806D01*
X-1287781Y+371034D01*
X-1384494Y+274321D01*
X-1521266Y+274321D01*
X-1617979Y+371034D01*
X-1617979Y+507806D01*
X-1559365Y+566420D01*
X-1617979Y+625034D01*
X-1617979Y+761806D01*
X-1521266Y+858519D01*
X-1384494Y+858519D01*
X-1287781Y+761806D01*
X+1826259Y-133639D02*
X+1823719Y-133639D01*
X+1823719Y-685799D01*
X+1493521Y-685799D01*
X+1493521Y-78741D01*
X+1496061Y-78741D01*
X+1496061Y+196559D01*
X+1826259Y+196559D01*
X+1826259Y-133639D01*
X-938065Y-629171D02*
X-938065Y-601817D01*
X-918722Y-582474D01*
X-891368Y-582474D01*
X-872025Y-601817D01*
X-872025Y-629171D01*
X-891368Y-648514D01*
X-918722Y-648514D01*
X-938065Y-629171D01*
X-827950Y+1169383D02*
X-827950Y+1196737D01*
X-808607Y+1216080D01*
X-781253Y+1216080D01*
X-761910Y+1196737D01*
X-761910Y+1169383D01*
X-781253Y+1150040D01*
X-808607Y+1150040D01*
X-827950Y+1169383D01*
X-321418Y+923458D02*
X-321418Y+950812D01*
X-302075Y+970155D01*
X-274721Y+970155D01*
X-255378Y+950812D01*
X-255378Y+923458D01*
X-274721Y+904115D01*
X-302075Y+904115D01*
X-321418Y+923458D01*
X+566848Y-1091656D02*
X+566848Y-1064302D01*
X+586191Y-1044959D01*
X+613545Y-1044959D01*
X+632888Y-1064302D01*
X+632888Y-1091656D01*
X+613545Y-1110999D01*
X+586191Y-1110999D01*
X+566848Y-1091656D01*
X+292980Y+145323D02*
X+292980Y+172677D01*
X+312323Y+192020D01*
X+339677Y+192020D01*
X+359020Y+172677D01*
X+359020Y+145323D01*
X+339677Y+125980D01*
X+312323Y+125980D01*
X+292980Y+145323D01*
X+522980Y+1315323D02*
X+522980Y+1342677D01*
X+542323Y+1362020D01*
X+569677Y+1362020D01*
X+589020Y+1342677D01*
X+589020Y+1315323D01*
X+569677Y+1295980D01*
X+542323Y+1295980D01*
X+522980Y+1315323D01*
X+742980Y+405323D02*
X+742980Y+432677D01*
X+762323Y+452020D01*
X+789677Y+452020D01*
X+809020Y+432677D01*
X+809020Y+405323D01*
X+789677Y+385980D01*
X+762323Y+385980D01*
X+742980Y+405323D01*
X+1382980Y+525323D02*
X+1382980Y+552677D01*
X+1402323Y+572020D01*
X+1429677Y+572020D01*
X+1449020Y+552677D01*
X+1449020Y+525323D01*
X+1429677Y+505980D01*
X+1402323Y+505980D01*
X+1382980Y+525323D01*
X+92980Y+1855323D02*
X+92980Y+1882677D01*
X+112323Y+1902020D01*
X+139677Y+1902020D01*
X+159020Y+1882677D01*
X+159020Y+1855323D01*
X+139677Y+1835980D01*
X+112323Y+1835980D01*
X+92980Y+1855323D01*
X-1521568Y+1299445D02*
X-1521568Y+1325747D01*
X-1502969Y+1344346D01*
X-1476667Y+1344346D01*
X-1458068Y+1325747D01*
X-1458068Y+1299445D01*
X-1476667Y+1280846D01*
X-1502969Y+1280846D01*
X-1521568Y+1299445D01*
X+1445451Y+1109776D02*
X+1445451Y+1137130D01*
X+1464794Y+1156473D01*
X+1492148Y+1156473D01*
X+1511491Y+1137130D01*
X+1511491Y+1109776D01*
X+1492148Y+1090433D01*
X+1464794Y+1090433D01*
X+1445451Y+1109776D01*
X+145854Y+175323D02*
X+145854Y+202677D01*
X+165197Y+222020D01*
X+192551Y+222020D01*
X+211894Y+202677D01*
X+211894Y+175323D01*
X+192551Y+155980D01*
X+165197Y+155980D01*
X+145854Y+175323D01*
X+235500Y+17843D02*
X+235500Y+45197D01*
X+254843Y+64540D01*
X+282197Y+64540D01*
X+301540Y+45197D01*
X+301540Y+17843D01*
X+282197Y-1500D01*
X+254843Y-1500D01*
X+235500Y+17843D01*
X-1086021Y+1728514D02*
X-1086021Y+1755868D01*
X-1066678Y+1775211D01*
X-1039324Y+1775211D01*
X-1019981Y+1755868D01*
X-1019981Y+1728514D01*
X-1039324Y+1709171D01*
X-1066678Y+1709171D01*
X-1086021Y+1728514D01*
X-140206Y+1399317D02*
X-140206Y+1426671D01*
X-120863Y+1446014D01*
X-93509Y+1446014D01*
X-74166Y+1426671D01*
X-74166Y+1399317D01*
X-93509Y+1379974D01*
X-120863Y+1379974D01*
X-140206Y+1399317D01*
X-1407020Y-34677D02*
X-1407020Y-7323D01*
X-1387677Y+12020D01*
X-1360323Y+12020D01*
X-1340980Y-7323D01*
X-1340980Y-34677D01*
X-1360323Y-54020D01*
X-1387677Y-54020D01*
X-1407020Y-34677D01*
X-1417020Y-1234677D02*
X-1417020Y-1207323D01*
X-1397677Y-1187980D01*
X-1370323Y-1187980D01*
X-1350980Y-1207323D01*
X-1350980Y-1234677D01*
X-1370323Y-1254020D01*
X-1397677Y-1254020D01*
X-1417020Y-1234677D01*
X-825337Y+490742D02*
X-825337Y+518096D01*
X-805994Y+537439D01*
X-778640Y+537439D01*
X-759297Y+518096D01*
X-759297Y+490742D01*
X-778640Y+471399D01*
X-805994Y+471399D01*
X-825337Y+490742D01*
X-573283Y-1001004D02*
X-573283Y-973650D01*
X-553940Y-954307D01*
X-526586Y-954307D01*
X-507243Y-973650D01*
X-507243Y-1001004D01*
X-526586Y-1020347D01*
X-553940Y-1020347D01*
X-573283Y-1001004D01*
X+2197099Y-1397000D02*
X+2032000Y-1397000D01*
X+1866901Y-1397000D02*
X+2032000Y-1397000D01*
D20*
X-1524000Y-1651000D03*
X-1270000Y-1651000D03*
X+2032000Y-1651000D03*
X+2032000Y-1397000D03*
X+2032000Y-1143000D03*
X+2032000Y+1905000D03*
X+1778000Y+1905000D03*
X+1524000Y+1905000D03*
X+1270000Y+1905000D03*
X+1016000Y+1905000D03*
X-1270000Y+1905000D03*
X-1524000Y+1905000D03*
X-1452880Y+439420D03*
X-1452880Y+693420D03*
D25*
X+1397000Y+769620D03*
X+1661160Y+31460D03*
X+1658620Y-520700D03*
X+1658620Y-243840D03*
D11*
X-1839040Y-1971900D02*
X+2360960Y-1971900D01*
X+2360960Y+2208100D01*
X-1839040Y+2208100D01*
X-1839040Y-1971900D01*
M02*
