G04 start of page 3 for group 1 idx 2 *
G04 Title: (unknown), bottom *
G04 Creator: pcb 20110918 *
G04 CreationDate: mar 22 dic 2015 20:03:52 GMT UTC *
G04 For: paolo *
G04 Format: Gerber/RS-274X *
G04 PCB-Dimensions: 155000 102500 *
G04 PCB-Coordinate-Origin: lower left *
%MOIN*%
%FSLAX25Y25*%
%LNBOTTOM*%
%ADD177C,0.0350*%
%ADD176C,0.0200*%
%ADD175C,0.0600*%
%ADD174C,0.0360*%
%ADD173R,0.0200X0.0200*%
%ADD172C,0.0160*%
%ADD171C,0.0250*%
%ADD170C,0.0100*%
%ADD169C,0.0001*%
G54D169*G36*
X140494Y102500D02*X154500D01*
Y0D01*
X140494D01*
Y8066D01*
X140754Y7642D01*
X141163Y7163D01*
X141642Y6754D01*
X142178Y6425D01*
X142760Y6184D01*
X143372Y6037D01*
X144000Y5988D01*
X144628Y6037D01*
X145240Y6184D01*
X145822Y6425D01*
X146358Y6754D01*
X146837Y7163D01*
X147246Y7642D01*
X147575Y8178D01*
X147816Y8760D01*
X147963Y9372D01*
X148000Y10000D01*
X147963Y10628D01*
X147816Y11240D01*
X147575Y11822D01*
X147246Y12358D01*
X146837Y12837D01*
X146358Y13246D01*
X145822Y13575D01*
X145240Y13816D01*
X144628Y13963D01*
X144000Y14012D01*
X143372Y13963D01*
X143249Y13933D01*
X140494Y16688D01*
Y90046D01*
X140575Y90178D01*
X140816Y90760D01*
X140963Y91372D01*
X141000Y92000D01*
X140963Y92628D01*
X140816Y93240D01*
X140575Y93822D01*
X140494Y93954D01*
Y102500D01*
G37*
G36*
Y16688D02*X139250Y17932D01*
Y88688D01*
X139358Y88754D01*
X139837Y89163D01*
X140246Y89642D01*
X140494Y90046D01*
Y16688D01*
G37*
G36*
X119230Y102500D02*X140494D01*
Y93954D01*
X140246Y94358D01*
X139837Y94837D01*
X139358Y95246D01*
X138822Y95575D01*
X138240Y95816D01*
X137628Y95963D01*
X137000Y96012D01*
X136372Y95963D01*
X135760Y95816D01*
X135178Y95575D01*
X134642Y95246D01*
X134163Y94837D01*
X133754Y94358D01*
X133425Y93822D01*
X133184Y93240D01*
X133037Y92628D01*
X132988Y92000D01*
X133037Y91372D01*
X133184Y90760D01*
X133425Y90178D01*
X133754Y89642D01*
X134163Y89163D01*
X134642Y88754D01*
X134750Y88688D01*
Y17088D01*
X134743Y17000D01*
X134771Y16647D01*
Y16647D01*
X134854Y16303D01*
X134989Y15975D01*
X135059Y15861D01*
X135174Y15673D01*
X135174Y15673D01*
X135404Y15404D01*
X135471Y15347D01*
X140067Y10751D01*
X140037Y10628D01*
X139988Y10000D01*
X140037Y9372D01*
X140184Y8760D01*
X140425Y8178D01*
X140494Y8066D01*
Y0D01*
X119230D01*
Y80714D01*
X119298Y80728D01*
X119371Y80755D01*
X119440Y80794D01*
X119502Y80843D01*
X119555Y80901D01*
X119598Y80966D01*
X119630Y81038D01*
X119706Y81271D01*
X119760Y81511D01*
X119792Y81755D01*
X119803Y82000D01*
X119792Y82245D01*
X119760Y82489D01*
X119706Y82729D01*
X119632Y82963D01*
X119600Y83035D01*
X119556Y83100D01*
X119503Y83159D01*
X119441Y83208D01*
X119372Y83246D01*
X119298Y83274D01*
X119230Y83288D01*
Y102500D01*
G37*
G36*
X117001D02*X119230D01*
Y83288D01*
X119221Y83290D01*
X119142Y83293D01*
X119063Y83284D01*
X118987Y83263D01*
X118915Y83230D01*
X118850Y83186D01*
X118791Y83133D01*
X118742Y83071D01*
X118704Y83002D01*
X118676Y82928D01*
X118660Y82851D01*
X118657Y82772D01*
X118666Y82693D01*
X118689Y82618D01*
X118738Y82468D01*
X118772Y82314D01*
X118793Y82158D01*
X118800Y82000D01*
X118793Y81842D01*
X118772Y81686D01*
X118738Y81532D01*
X118690Y81382D01*
X118668Y81306D01*
X118659Y81228D01*
X118662Y81150D01*
X118678Y81073D01*
X118705Y80999D01*
X118744Y80930D01*
X118793Y80869D01*
X118851Y80815D01*
X118916Y80772D01*
X118988Y80739D01*
X119064Y80718D01*
X119142Y80709D01*
X119220Y80712D01*
X119230Y80714D01*
Y0D01*
X117001D01*
Y79197D01*
X117245Y79208D01*
X117489Y79240D01*
X117729Y79294D01*
X117963Y79368D01*
X118035Y79400D01*
X118100Y79444D01*
X118159Y79497D01*
X118208Y79559D01*
X118246Y79628D01*
X118274Y79702D01*
X118290Y79779D01*
X118293Y79858D01*
X118284Y79937D01*
X118263Y80013D01*
X118230Y80085D01*
X118186Y80150D01*
X118133Y80209D01*
X118071Y80258D01*
X118002Y80296D01*
X117928Y80324D01*
X117851Y80340D01*
X117772Y80343D01*
X117693Y80334D01*
X117618Y80311D01*
X117468Y80262D01*
X117314Y80228D01*
X117158Y80207D01*
X117001Y80200D01*
Y83800D01*
X117158Y83793D01*
X117314Y83772D01*
X117468Y83738D01*
X117618Y83690D01*
X117694Y83668D01*
X117772Y83659D01*
X117850Y83662D01*
X117927Y83678D01*
X118001Y83705D01*
X118070Y83744D01*
X118131Y83793D01*
X118185Y83851D01*
X118228Y83916D01*
X118261Y83988D01*
X118282Y84064D01*
X118291Y84142D01*
X118288Y84220D01*
X118272Y84298D01*
X118245Y84371D01*
X118206Y84440D01*
X118157Y84502D01*
X118099Y84555D01*
X118034Y84598D01*
X117962Y84630D01*
X117729Y84706D01*
X117489Y84760D01*
X117245Y84792D01*
X117001Y84803D01*
Y102500D01*
G37*
G36*
X114770D02*X117001D01*
Y84803D01*
X117000Y84803D01*
X116755Y84792D01*
X116511Y84760D01*
X116271Y84706D01*
X116037Y84632D01*
X115965Y84600D01*
X115900Y84556D01*
X115841Y84503D01*
X115792Y84441D01*
X115754Y84372D01*
X115726Y84298D01*
X115710Y84221D01*
X115707Y84142D01*
X115716Y84063D01*
X115737Y83987D01*
X115770Y83915D01*
X115814Y83850D01*
X115867Y83791D01*
X115929Y83742D01*
X115998Y83704D01*
X116072Y83676D01*
X116149Y83660D01*
X116228Y83657D01*
X116307Y83666D01*
X116382Y83689D01*
X116532Y83738D01*
X116686Y83772D01*
X116842Y83793D01*
X117000Y83800D01*
X117001Y83800D01*
Y80200D01*
X117000Y80200D01*
X116842Y80207D01*
X116686Y80228D01*
X116532Y80262D01*
X116382Y80310D01*
X116306Y80332D01*
X116228Y80341D01*
X116150Y80338D01*
X116073Y80322D01*
X115999Y80295D01*
X115930Y80256D01*
X115869Y80207D01*
X115815Y80149D01*
X115772Y80084D01*
X115739Y80012D01*
X115718Y79936D01*
X115709Y79858D01*
X115712Y79780D01*
X115728Y79702D01*
X115755Y79629D01*
X115794Y79560D01*
X115843Y79498D01*
X115901Y79445D01*
X115966Y79402D01*
X116038Y79370D01*
X116271Y79294D01*
X116511Y79240D01*
X116755Y79208D01*
X117000Y79197D01*
X117001Y79197D01*
Y0D01*
X114770D01*
Y80712D01*
X114779Y80710D01*
X114858Y80707D01*
X114937Y80716D01*
X115013Y80737D01*
X115085Y80770D01*
X115150Y80814D01*
X115209Y80867D01*
X115258Y80929D01*
X115296Y80998D01*
X115324Y81072D01*
X115340Y81149D01*
X115343Y81228D01*
X115334Y81307D01*
X115311Y81382D01*
X115262Y81532D01*
X115228Y81686D01*
X115207Y81842D01*
X115200Y82000D01*
X115207Y82158D01*
X115228Y82314D01*
X115262Y82468D01*
X115310Y82618D01*
X115332Y82694D01*
X115341Y82772D01*
X115338Y82850D01*
X115322Y82927D01*
X115295Y83001D01*
X115256Y83070D01*
X115207Y83131D01*
X115149Y83185D01*
X115084Y83228D01*
X115012Y83261D01*
X114936Y83282D01*
X114858Y83291D01*
X114780Y83288D01*
X114770Y83286D01*
Y102500D01*
G37*
G36*
X104230D02*X114770D01*
Y83286D01*
X114702Y83272D01*
X114629Y83245D01*
X114560Y83206D01*
X114498Y83157D01*
X114445Y83099D01*
X114402Y83034D01*
X114370Y82962D01*
X114294Y82729D01*
X114240Y82489D01*
X114208Y82245D01*
X114197Y82000D01*
X114208Y81755D01*
X114240Y81511D01*
X114294Y81271D01*
X114368Y81037D01*
X114400Y80965D01*
X114444Y80900D01*
X114497Y80841D01*
X114559Y80792D01*
X114628Y80754D01*
X114702Y80726D01*
X114770Y80712D01*
Y0D01*
X104230D01*
Y31714D01*
X104298Y31728D01*
X104371Y31755D01*
X104440Y31794D01*
X104502Y31843D01*
X104555Y31901D01*
X104598Y31966D01*
X104630Y32038D01*
X104706Y32271D01*
X104760Y32511D01*
X104792Y32755D01*
X104803Y33000D01*
X104792Y33245D01*
X104760Y33489D01*
X104706Y33729D01*
X104632Y33963D01*
X104600Y34035D01*
X104556Y34100D01*
X104503Y34159D01*
X104441Y34208D01*
X104372Y34246D01*
X104298Y34274D01*
X104230Y34288D01*
Y61295D01*
X104486Y61514D01*
X104772Y61849D01*
X105003Y62225D01*
X105171Y62632D01*
X105274Y63061D01*
X105300Y63500D01*
X105274Y63939D01*
X105171Y64368D01*
X105003Y64775D01*
X104772Y65151D01*
X104486Y65486D01*
X104230Y65705D01*
Y102500D01*
G37*
G36*
X101351Y0D02*Y30276D01*
X101511Y30240D01*
X101755Y30208D01*
X102000Y30197D01*
X102245Y30208D01*
X102489Y30240D01*
X102729Y30294D01*
X102963Y30368D01*
X103035Y30400D01*
X103100Y30444D01*
X103159Y30497D01*
X103208Y30559D01*
X103246Y30628D01*
X103274Y30702D01*
X103290Y30779D01*
X103293Y30858D01*
X103284Y30937D01*
X103263Y31013D01*
X103230Y31085D01*
X103186Y31150D01*
X103133Y31209D01*
X103071Y31258D01*
X103002Y31296D01*
X102928Y31324D01*
X102851Y31340D01*
X102772Y31343D01*
X102693Y31334D01*
X102618Y31311D01*
X102468Y31262D01*
X102314Y31228D01*
X102158Y31207D01*
X102000Y31200D01*
X101842Y31207D01*
X101686Y31228D01*
X101532Y31262D01*
X101382Y31310D01*
X101351Y31319D01*
Y31645D01*
X101535Y31569D01*
X101765Y31514D01*
X102000Y31495D01*
X102235Y31514D01*
X102465Y31569D01*
X102683Y31659D01*
X102884Y31783D01*
X103064Y31936D01*
X103217Y32116D01*
X103341Y32317D01*
X103431Y32535D01*
X103486Y32765D01*
X103505Y33000D01*
X103486Y33235D01*
X103431Y33465D01*
X103341Y33683D01*
X103217Y33884D01*
X103061Y34061D01*
X102561Y34561D01*
X102384Y34717D01*
X102289Y34776D01*
X102314Y34772D01*
X102468Y34738D01*
X102618Y34690D01*
X102694Y34668D01*
X102772Y34659D01*
X102850Y34662D01*
X102927Y34678D01*
X103001Y34705D01*
X103070Y34744D01*
X103131Y34793D01*
X103185Y34851D01*
X103228Y34916D01*
X103261Y34988D01*
X103282Y35064D01*
X103291Y35142D01*
X103288Y35220D01*
X103272Y35298D01*
X103245Y35371D01*
X103206Y35440D01*
X103157Y35502D01*
X103099Y35555D01*
X103034Y35598D01*
X102962Y35630D01*
X102729Y35706D01*
X102489Y35760D01*
X102245Y35792D01*
X102000Y35803D01*
X101755Y35792D01*
X101511Y35760D01*
X101351Y35724D01*
Y60945D01*
X101632Y60829D01*
X102061Y60726D01*
X102500Y60691D01*
X102939Y60726D01*
X103368Y60829D01*
X103775Y60997D01*
X104151Y61228D01*
X104230Y61295D01*
Y34288D01*
X104221Y34290D01*
X104142Y34293D01*
X104063Y34284D01*
X103987Y34263D01*
X103915Y34230D01*
X103850Y34186D01*
X103791Y34133D01*
X103742Y34071D01*
X103704Y34002D01*
X103676Y33928D01*
X103660Y33851D01*
X103657Y33772D01*
X103666Y33693D01*
X103689Y33618D01*
X103738Y33468D01*
X103772Y33314D01*
X103793Y33158D01*
X103800Y33000D01*
X103793Y32842D01*
X103772Y32686D01*
X103738Y32532D01*
X103690Y32382D01*
X103668Y32306D01*
X103659Y32228D01*
X103662Y32150D01*
X103678Y32073D01*
X103705Y31999D01*
X103744Y31930D01*
X103793Y31869D01*
X103851Y31815D01*
X103916Y31772D01*
X103988Y31739D01*
X104064Y31718D01*
X104142Y31709D01*
X104220Y31712D01*
X104230Y31714D01*
Y0D01*
X101351D01*
G37*
G36*
Y102500D02*X104230D01*
Y65705D01*
X104151Y65772D01*
X103775Y66003D01*
X103368Y66171D01*
X102939Y66274D01*
X102500Y66309D01*
X102061Y66274D01*
X101632Y66171D01*
X101351Y66055D01*
Y102500D01*
G37*
G36*
X93230Y0D02*Y32214D01*
X93298Y32228D01*
X93371Y32255D01*
X93440Y32294D01*
X93502Y32343D01*
X93555Y32401D01*
X93598Y32466D01*
X93630Y32538D01*
X93706Y32771D01*
X93760Y33011D01*
X93792Y33255D01*
X93803Y33500D01*
X93792Y33745D01*
X93760Y33989D01*
X93706Y34229D01*
X93632Y34463D01*
X93600Y34535D01*
X93556Y34600D01*
X93503Y34659D01*
X93441Y34708D01*
X93372Y34746D01*
X93298Y34774D01*
X93230Y34788D01*
Y62000D01*
X100135D01*
X100228Y61849D01*
X100514Y61514D01*
X100849Y61228D01*
X101225Y60997D01*
X101351Y60945D01*
Y35724D01*
X101271Y35706D01*
X101037Y35632D01*
X100965Y35600D01*
X100900Y35556D01*
X100841Y35503D01*
X100792Y35441D01*
X100754Y35372D01*
X100726Y35298D01*
X100710Y35221D01*
X100707Y35142D01*
X100716Y35063D01*
X100737Y34987D01*
X100770Y34915D01*
X100814Y34850D01*
X100821Y34842D01*
X100817Y34841D01*
X100616Y34717D01*
X100436Y34564D01*
X100283Y34384D01*
X100159Y34183D01*
X100157Y34178D01*
X100149Y34185D01*
X100084Y34228D01*
X100012Y34261D01*
X99936Y34282D01*
X99858Y34291D01*
X99780Y34288D01*
X99702Y34272D01*
X99629Y34245D01*
X99560Y34206D01*
X99498Y34157D01*
X99445Y34099D01*
X99402Y34034D01*
X99370Y33962D01*
X99294Y33729D01*
X99240Y33489D01*
X99208Y33245D01*
X99197Y33000D01*
X99208Y32755D01*
X99240Y32511D01*
X99294Y32271D01*
X99368Y32037D01*
X99400Y31965D01*
X99444Y31900D01*
X99497Y31841D01*
X99559Y31792D01*
X99628Y31754D01*
X99702Y31726D01*
X99779Y31710D01*
X99858Y31707D01*
X99937Y31716D01*
X100013Y31737D01*
X100085Y31770D01*
X100150Y31814D01*
X100209Y31867D01*
X100258Y31929D01*
X100296Y31998D01*
X100324Y32072D01*
X100340Y32149D01*
X100343Y32228D01*
X100334Y32307D01*
X100311Y32382D01*
X100262Y32532D01*
X100228Y32686D01*
X100224Y32711D01*
X100283Y32616D01*
X100439Y32439D01*
X100939Y31939D01*
X101116Y31783D01*
X101317Y31659D01*
X101351Y31645D01*
Y31319D01*
X101306Y31332D01*
X101228Y31341D01*
X101150Y31338D01*
X101073Y31322D01*
X100999Y31295D01*
X100930Y31256D01*
X100869Y31207D01*
X100815Y31149D01*
X100772Y31084D01*
X100739Y31012D01*
X100718Y30936D01*
X100709Y30858D01*
X100712Y30780D01*
X100728Y30702D01*
X100755Y30629D01*
X100794Y30560D01*
X100843Y30498D01*
X100901Y30445D01*
X100966Y30402D01*
X101038Y30370D01*
X101271Y30294D01*
X101351Y30276D01*
Y0D01*
X93230D01*
G37*
G36*
X91001D02*Y30697D01*
X91245Y30708D01*
X91489Y30740D01*
X91729Y30794D01*
X91963Y30868D01*
X92035Y30900D01*
X92100Y30944D01*
X92159Y30997D01*
X92208Y31059D01*
X92246Y31128D01*
X92274Y31202D01*
X92290Y31279D01*
X92293Y31358D01*
X92284Y31437D01*
X92263Y31513D01*
X92230Y31585D01*
X92186Y31650D01*
X92133Y31709D01*
X92071Y31758D01*
X92002Y31796D01*
X91928Y31824D01*
X91851Y31840D01*
X91772Y31843D01*
X91693Y31834D01*
X91618Y31811D01*
X91468Y31762D01*
X91314Y31728D01*
X91158Y31707D01*
X91001Y31700D01*
Y35300D01*
X91158Y35293D01*
X91314Y35272D01*
X91468Y35238D01*
X91618Y35190D01*
X91694Y35168D01*
X91772Y35159D01*
X91850Y35162D01*
X91927Y35178D01*
X92001Y35205D01*
X92070Y35244D01*
X92131Y35293D01*
X92185Y35351D01*
X92228Y35416D01*
X92261Y35488D01*
X92282Y35564D01*
X92291Y35642D01*
X92288Y35720D01*
X92272Y35798D01*
X92245Y35871D01*
X92206Y35940D01*
X92157Y36002D01*
X92099Y36055D01*
X92034Y36098D01*
X91962Y36130D01*
X91729Y36206D01*
X91489Y36260D01*
X91245Y36292D01*
X91001Y36303D01*
Y62000D01*
X93230D01*
Y34788D01*
X93221Y34790D01*
X93142Y34793D01*
X93063Y34784D01*
X92987Y34763D01*
X92915Y34730D01*
X92850Y34686D01*
X92791Y34633D01*
X92742Y34571D01*
X92704Y34502D01*
X92676Y34428D01*
X92660Y34351D01*
X92657Y34272D01*
X92666Y34193D01*
X92689Y34118D01*
X92738Y33968D01*
X92772Y33814D01*
X92793Y33658D01*
X92800Y33500D01*
X92793Y33342D01*
X92772Y33186D01*
X92738Y33032D01*
X92690Y32882D01*
X92668Y32806D01*
X92659Y32728D01*
X92662Y32650D01*
X92678Y32573D01*
X92705Y32499D01*
X92744Y32430D01*
X92793Y32369D01*
X92851Y32315D01*
X92916Y32272D01*
X92988Y32239D01*
X93064Y32218D01*
X93142Y32209D01*
X93220Y32212D01*
X93230Y32214D01*
Y0D01*
X91001D01*
G37*
G36*
X88770D02*Y32212D01*
X88779Y32210D01*
X88858Y32207D01*
X88937Y32216D01*
X89013Y32237D01*
X89085Y32270D01*
X89150Y32314D01*
X89209Y32367D01*
X89258Y32429D01*
X89296Y32498D01*
X89324Y32572D01*
X89340Y32649D01*
X89343Y32728D01*
X89334Y32807D01*
X89311Y32882D01*
X89262Y33032D01*
X89228Y33186D01*
X89207Y33342D01*
X89200Y33500D01*
X89207Y33658D01*
X89228Y33814D01*
X89262Y33968D01*
X89310Y34118D01*
X89332Y34194D01*
X89341Y34272D01*
X89338Y34350D01*
X89322Y34427D01*
X89295Y34501D01*
X89256Y34570D01*
X89207Y34631D01*
X89149Y34685D01*
X89084Y34728D01*
X89012Y34761D01*
X88936Y34782D01*
X88858Y34791D01*
X88780Y34788D01*
X88770Y34786D01*
Y62000D01*
X91001D01*
Y36303D01*
X91000Y36303D01*
X90755Y36292D01*
X90511Y36260D01*
X90271Y36206D01*
X90037Y36132D01*
X89965Y36100D01*
X89900Y36056D01*
X89841Y36003D01*
X89792Y35941D01*
X89754Y35872D01*
X89726Y35798D01*
X89710Y35721D01*
X89707Y35642D01*
X89716Y35563D01*
X89737Y35487D01*
X89770Y35415D01*
X89814Y35350D01*
X89867Y35291D01*
X89929Y35242D01*
X89998Y35204D01*
X90072Y35176D01*
X90149Y35160D01*
X90228Y35157D01*
X90307Y35166D01*
X90382Y35189D01*
X90532Y35238D01*
X90686Y35272D01*
X90842Y35293D01*
X91000Y35300D01*
X91001Y35300D01*
Y31700D01*
X91000Y31700D01*
X90842Y31707D01*
X90686Y31728D01*
X90532Y31762D01*
X90382Y31810D01*
X90306Y31832D01*
X90228Y31841D01*
X90150Y31838D01*
X90073Y31822D01*
X89999Y31795D01*
X89930Y31756D01*
X89869Y31707D01*
X89815Y31649D01*
X89772Y31584D01*
X89739Y31512D01*
X89718Y31436D01*
X89709Y31358D01*
X89712Y31280D01*
X89728Y31202D01*
X89755Y31129D01*
X89794Y31060D01*
X89843Y30998D01*
X89901Y30945D01*
X89966Y30902D01*
X90038Y30870D01*
X90271Y30794D01*
X90511Y30740D01*
X90755Y30708D01*
X91000Y30697D01*
X91001Y30697D01*
Y0D01*
X88770D01*
G37*
G36*
X74284D02*Y40369D01*
X74287Y40370D01*
X74355Y40409D01*
X74416Y40458D01*
X74469Y40517D01*
X74511Y40583D01*
X74674Y40908D01*
X74803Y41248D01*
X74901Y41598D01*
X74967Y41956D01*
X75000Y42318D01*
Y42682D01*
X74967Y43044D01*
X74901Y43402D01*
X74803Y43752D01*
X74674Y44092D01*
X74515Y44419D01*
X74472Y44485D01*
X74419Y44544D01*
X74357Y44594D01*
X74288Y44633D01*
X74284Y44635D01*
Y62000D01*
X88770D01*
Y34786D01*
X88702Y34772D01*
X88629Y34745D01*
X88560Y34706D01*
X88498Y34657D01*
X88445Y34599D01*
X88402Y34534D01*
X88370Y34462D01*
X88294Y34229D01*
X88240Y33989D01*
X88208Y33745D01*
X88197Y33500D01*
X88208Y33255D01*
X88240Y33011D01*
X88294Y32771D01*
X88368Y32537D01*
X88400Y32465D01*
X88444Y32400D01*
X88497Y32341D01*
X88559Y32292D01*
X88628Y32254D01*
X88702Y32226D01*
X88770Y32212D01*
Y0D01*
X74284D01*
G37*
G36*
X71002D02*Y32191D01*
X71439Y32226D01*
X71868Y32329D01*
X72275Y32497D01*
X72651Y32728D01*
X72986Y33014D01*
X73272Y33349D01*
X73503Y33725D01*
X73671Y34132D01*
X73774Y34561D01*
X73800Y35000D01*
X73774Y35439D01*
X73671Y35868D01*
X73503Y36275D01*
X73272Y36651D01*
X72986Y36986D01*
X72651Y37272D01*
X72275Y37503D01*
X71868Y37671D01*
X71439Y37774D01*
X71002Y37809D01*
Y38500D01*
X71182D01*
X71544Y38533D01*
X71902Y38599D01*
X72252Y38697D01*
X72592Y38826D01*
X72919Y38985D01*
X72985Y39028D01*
X73044Y39081D01*
X73094Y39143D01*
X73133Y39212D01*
X73161Y39286D01*
X73177Y39363D01*
X73181Y39442D01*
X73173Y39521D01*
X73152Y39597D01*
X73120Y39670D01*
X73077Y39736D01*
X73024Y39795D01*
X72962Y39844D01*
X72893Y39884D01*
X72819Y39912D01*
X72742Y39928D01*
X72663Y39932D01*
X72584Y39924D01*
X72507Y39903D01*
X72436Y39870D01*
X72193Y39747D01*
X71938Y39650D01*
X71676Y39577D01*
X71408Y39528D01*
X71136Y39503D01*
X71002D01*
Y45497D01*
X71136D01*
X71408Y45472D01*
X71676Y45423D01*
X71938Y45350D01*
X72193Y45253D01*
X72437Y45133D01*
X72509Y45100D01*
X72584Y45079D01*
X72663Y45071D01*
X72741Y45075D01*
X72818Y45091D01*
X72892Y45119D01*
X72960Y45158D01*
X73021Y45207D01*
X73074Y45266D01*
X73117Y45332D01*
X73149Y45404D01*
X73170Y45480D01*
X73178Y45558D01*
X73174Y45636D01*
X73158Y45713D01*
X73130Y45787D01*
X73091Y45855D01*
X73042Y45916D01*
X72983Y45969D01*
X72917Y46011D01*
X72592Y46174D01*
X72252Y46303D01*
X71902Y46401D01*
X71544Y46467D01*
X71182Y46500D01*
X71002D01*
Y62000D01*
X74284D01*
Y44635D01*
X74214Y44661D01*
X74137Y44677D01*
X74058Y44681D01*
X73979Y44673D01*
X73903Y44652D01*
X73830Y44620D01*
X73764Y44577D01*
X73705Y44524D01*
X73656Y44462D01*
X73616Y44393D01*
X73588Y44319D01*
X73572Y44242D01*
X73568Y44163D01*
X73576Y44084D01*
X73597Y44007D01*
X73630Y43936D01*
X73753Y43693D01*
X73850Y43438D01*
X73923Y43176D01*
X73972Y42908D01*
X73997Y42636D01*
Y42364D01*
X73972Y42092D01*
X73923Y41824D01*
X73850Y41562D01*
X73753Y41307D01*
X73633Y41063D01*
X73600Y40991D01*
X73579Y40916D01*
X73571Y40837D01*
X73575Y40759D01*
X73591Y40682D01*
X73619Y40608D01*
X73658Y40540D01*
X73707Y40479D01*
X73766Y40426D01*
X73832Y40383D01*
X73904Y40351D01*
X73980Y40330D01*
X74058Y40322D01*
X74136Y40326D01*
X74213Y40342D01*
X74284Y40369D01*
Y0D01*
X71002D01*
G37*
G36*
Y37809D02*X71000Y37809D01*
X70561Y37774D01*
X70132Y37671D01*
X69725Y37503D01*
X69349Y37272D01*
X69014Y36986D01*
X68746Y36672D01*
Y52442D01*
X68774Y52561D01*
X68800Y53000D01*
X68774Y53439D01*
X68746Y53558D01*
Y62000D01*
X71002D01*
Y46500D01*
X70818D01*
X70456Y46467D01*
X70098Y46401D01*
X69748Y46303D01*
X69408Y46174D01*
X69081Y46015D01*
X69015Y45972D01*
X68956Y45919D01*
X68906Y45857D01*
X68867Y45788D01*
X68839Y45714D01*
X68823Y45637D01*
X68819Y45558D01*
X68827Y45479D01*
X68848Y45403D01*
X68880Y45330D01*
X68923Y45264D01*
X68976Y45205D01*
X69038Y45156D01*
X69107Y45116D01*
X69181Y45088D01*
X69258Y45072D01*
X69337Y45068D01*
X69416Y45076D01*
X69493Y45097D01*
X69564Y45130D01*
X69807Y45253D01*
X70062Y45350D01*
X70324Y45423D01*
X70592Y45472D01*
X70864Y45497D01*
X71002D01*
Y39503D01*
X70864D01*
X70592Y39528D01*
X70324Y39577D01*
X70062Y39650D01*
X69807Y39747D01*
X69563Y39867D01*
X69491Y39900D01*
X69415Y39921D01*
X69337Y39929D01*
X69259Y39925D01*
X69182Y39909D01*
X69108Y39881D01*
X69040Y39842D01*
X68979Y39793D01*
X68926Y39734D01*
X68883Y39668D01*
X68851Y39596D01*
X68830Y39520D01*
X68822Y39442D01*
X68826Y39364D01*
X68842Y39287D01*
X68870Y39213D01*
X68909Y39145D01*
X68958Y39084D01*
X69017Y39031D01*
X69083Y38989D01*
X69408Y38826D01*
X69748Y38697D01*
X70098Y38599D01*
X70456Y38533D01*
X70818Y38500D01*
X71002D01*
Y37809D01*
G37*
G36*
X68746Y0D02*Y33328D01*
X69014Y33014D01*
X69349Y32728D01*
X69725Y32497D01*
X70132Y32329D01*
X70561Y32226D01*
X71000Y32191D01*
X71002Y32191D01*
Y0D01*
X68746D01*
G37*
G36*
Y102500D02*X101351D01*
Y66055D01*
X101225Y66003D01*
X100849Y65772D01*
X100514Y65486D01*
X100228Y65151D01*
X100135Y65000D01*
X68746D01*
Y102500D01*
G37*
G36*
Y53558D02*X68671Y53868D01*
X68503Y54275D01*
X68272Y54651D01*
X67986Y54986D01*
X67651Y55272D01*
X67500Y55365D01*
Y62000D01*
X68746D01*
Y53558D01*
G37*
G36*
X29001Y58500D02*X33135D01*
X33228Y58349D01*
X33514Y58014D01*
X33849Y57728D01*
X34221Y57500D01*
X33849Y57272D01*
X33514Y56986D01*
X33228Y56651D01*
X33135Y56500D01*
X29001D01*
Y58500D01*
G37*
G36*
Y63500D02*X33135D01*
X33228Y63349D01*
X33514Y63014D01*
X33849Y62728D01*
X34221Y62500D01*
X33849Y62272D01*
X33514Y61986D01*
X33228Y61651D01*
X33135Y61500D01*
X29001D01*
Y63500D01*
G37*
G36*
X56375Y24419D02*X56486Y24514D01*
X56772Y24849D01*
X57003Y25225D01*
X57171Y25632D01*
X57274Y26061D01*
X57300Y26500D01*
X57274Y26939D01*
X57233Y27111D01*
X63621Y33500D01*
X68635D01*
X68728Y33349D01*
X68746Y33328D01*
Y0D01*
X56375D01*
Y24419D01*
G37*
G36*
X67716Y50784D02*X67986Y51014D01*
X68272Y51349D01*
X68503Y51725D01*
X68671Y52132D01*
X68746Y52442D01*
Y36672D01*
X68728Y36651D01*
X68635Y36500D01*
X67716D01*
Y40365D01*
X67786Y40339D01*
X67863Y40323D01*
X67942Y40319D01*
X68021Y40327D01*
X68097Y40348D01*
X68170Y40380D01*
X68236Y40423D01*
X68295Y40476D01*
X68344Y40538D01*
X68384Y40607D01*
X68412Y40681D01*
X68428Y40758D01*
X68432Y40837D01*
X68424Y40916D01*
X68403Y40993D01*
X68370Y41064D01*
X68247Y41307D01*
X68150Y41562D01*
X68077Y41824D01*
X68028Y42092D01*
X68003Y42364D01*
Y42636D01*
X68028Y42908D01*
X68077Y43176D01*
X68150Y43438D01*
X68247Y43693D01*
X68367Y43937D01*
X68400Y44009D01*
X68421Y44085D01*
X68429Y44163D01*
X68425Y44241D01*
X68409Y44318D01*
X68381Y44392D01*
X68342Y44460D01*
X68293Y44521D01*
X68234Y44574D01*
X68168Y44617D01*
X68096Y44649D01*
X68020Y44670D01*
X67942Y44678D01*
X67864Y44674D01*
X67787Y44658D01*
X67716Y44631D01*
Y50784D01*
G37*
G36*
X59784Y85595D02*X61500Y83879D01*
Y71059D01*
X61495Y71000D01*
X61514Y70765D01*
X61569Y70535D01*
X61659Y70317D01*
X61783Y70116D01*
X61783Y70115D01*
X61936Y69936D01*
X61981Y69898D01*
X64500Y67379D01*
Y64059D01*
X64495Y64000D01*
X64500Y63941D01*
Y63059D01*
X64495Y63000D01*
X64500Y62941D01*
Y62500D01*
X64500Y62500D01*
Y55365D01*
X64349Y55272D01*
X64014Y54986D01*
X63728Y54651D01*
X63497Y54275D01*
X63329Y53868D01*
X63226Y53439D01*
X63191Y53000D01*
X63226Y52561D01*
X63329Y52132D01*
X63497Y51725D01*
X63728Y51349D01*
X64014Y51014D01*
X64349Y50728D01*
X64725Y50497D01*
X65132Y50329D01*
X65561Y50226D01*
X66000Y50191D01*
X66439Y50226D01*
X66868Y50329D01*
X67275Y50497D01*
X67651Y50728D01*
X67716Y50784D01*
Y44631D01*
X67713Y44630D01*
X67645Y44591D01*
X67584Y44542D01*
X67531Y44483D01*
X67489Y44417D01*
X67326Y44092D01*
X67197Y43752D01*
X67099Y43402D01*
X67033Y43044D01*
X67000Y42682D01*
Y42318D01*
X67033Y41956D01*
X67099Y41598D01*
X67197Y41248D01*
X67326Y40908D01*
X67485Y40581D01*
X67528Y40515D01*
X67581Y40456D01*
X67643Y40406D01*
X67712Y40367D01*
X67716Y40365D01*
Y36500D01*
X63059D01*
X63000Y36505D01*
X62765Y36486D01*
X62535Y36431D01*
X62317Y36341D01*
X62116Y36217D01*
X62115Y36217D01*
X61936Y36064D01*
X61898Y36019D01*
X59784Y33905D01*
Y63369D01*
X59787Y63370D01*
X59855Y63409D01*
X59916Y63458D01*
X59969Y63517D01*
X60011Y63583D01*
X60174Y63908D01*
X60303Y64248D01*
X60401Y64598D01*
X60467Y64956D01*
X60500Y65318D01*
Y65682D01*
X60467Y66044D01*
X60401Y66402D01*
X60303Y66752D01*
X60174Y67092D01*
X60015Y67419D01*
X59972Y67485D01*
X59919Y67544D01*
X59857Y67594D01*
X59788Y67633D01*
X59784Y67635D01*
Y85595D01*
G37*
G36*
X56375Y86500D02*X58879D01*
X59784Y85595D01*
Y67635D01*
X59714Y67661D01*
X59637Y67677D01*
X59558Y67681D01*
X59479Y67673D01*
X59403Y67652D01*
X59330Y67620D01*
X59264Y67577D01*
X59205Y67524D01*
X59156Y67462D01*
X59116Y67393D01*
X59088Y67319D01*
X59072Y67242D01*
X59068Y67163D01*
X59076Y67084D01*
X59097Y67007D01*
X59130Y66936D01*
X59253Y66693D01*
X59350Y66438D01*
X59423Y66176D01*
X59472Y65908D01*
X59497Y65636D01*
Y65364D01*
X59472Y65092D01*
X59423Y64824D01*
X59350Y64562D01*
X59253Y64307D01*
X59133Y64063D01*
X59100Y63991D01*
X59079Y63916D01*
X59071Y63837D01*
X59075Y63759D01*
X59091Y63682D01*
X59119Y63608D01*
X59158Y63540D01*
X59207Y63479D01*
X59266Y63426D01*
X59332Y63383D01*
X59404Y63351D01*
X59480Y63330D01*
X59558Y63322D01*
X59636Y63326D01*
X59713Y63342D01*
X59784Y63369D01*
Y33905D01*
X56375Y30496D01*
Y61500D01*
X56682D01*
X57044Y61533D01*
X57402Y61599D01*
X57752Y61697D01*
X58092Y61826D01*
X58419Y61985D01*
X58485Y62028D01*
X58544Y62081D01*
X58594Y62143D01*
X58633Y62212D01*
X58661Y62286D01*
X58677Y62363D01*
X58681Y62442D01*
X58673Y62521D01*
X58652Y62597D01*
X58620Y62670D01*
X58577Y62736D01*
X58524Y62795D01*
X58462Y62844D01*
X58393Y62884D01*
X58319Y62912D01*
X58242Y62928D01*
X58163Y62932D01*
X58084Y62924D01*
X58007Y62903D01*
X57936Y62870D01*
X57693Y62747D01*
X57438Y62650D01*
X57176Y62577D01*
X56908Y62528D01*
X56636Y62503D01*
X56375D01*
Y63003D01*
X56603Y63021D01*
X56947Y63104D01*
X57275Y63239D01*
X57577Y63424D01*
X57841Y63659D01*
X58091Y63909D01*
X58326Y64173D01*
X58511Y64475D01*
X58646Y64803D01*
X58729Y65147D01*
X58757Y65500D01*
X58729Y65853D01*
X58646Y66197D01*
X58511Y66525D01*
X58326Y66827D01*
X58096Y67096D01*
X57827Y67326D01*
X57525Y67511D01*
X57197Y67646D01*
X56853Y67729D01*
X56500Y67757D01*
X56375Y67747D01*
Y68497D01*
X56636D01*
X56908Y68472D01*
X57176Y68423D01*
X57438Y68350D01*
X57693Y68253D01*
X57937Y68133D01*
X58009Y68100D01*
X58084Y68079D01*
X58163Y68071D01*
X58241Y68075D01*
X58318Y68091D01*
X58392Y68119D01*
X58460Y68158D01*
X58521Y68207D01*
X58574Y68266D01*
X58617Y68332D01*
X58649Y68404D01*
X58670Y68480D01*
X58678Y68558D01*
X58674Y68636D01*
X58658Y68713D01*
X58630Y68787D01*
X58591Y68855D01*
X58542Y68916D01*
X58483Y68969D01*
X58417Y69011D01*
X58092Y69174D01*
X57752Y69303D01*
X57402Y69401D01*
X57044Y69467D01*
X56682Y69500D01*
X56375D01*
Y86500D01*
G37*
G36*
X53216Y24003D02*X53225Y23997D01*
X53632Y23829D01*
X54061Y23726D01*
X54500Y23691D01*
X54939Y23726D01*
X55368Y23829D01*
X55775Y23997D01*
X56151Y24228D01*
X56375Y24419D01*
Y0D01*
X53216D01*
Y24003D01*
G37*
G36*
Y86500D02*X56375D01*
Y69500D01*
X56318D01*
X55956Y69467D01*
X55598Y69401D01*
X55248Y69303D01*
X54908Y69174D01*
X54581Y69015D01*
X54515Y68972D01*
X54456Y68919D01*
X54406Y68857D01*
X54367Y68788D01*
X54339Y68714D01*
X54323Y68637D01*
X54319Y68558D01*
X54327Y68479D01*
X54348Y68403D01*
X54380Y68330D01*
X54423Y68264D01*
X54476Y68205D01*
X54538Y68156D01*
X54607Y68116D01*
X54681Y68088D01*
X54758Y68072D01*
X54837Y68068D01*
X54916Y68076D01*
X54993Y68097D01*
X55064Y68130D01*
X55307Y68253D01*
X55562Y68350D01*
X55824Y68423D01*
X56092Y68472D01*
X56364Y68497D01*
X56375D01*
Y67747D01*
X56147Y67729D01*
X55803Y67646D01*
X55475Y67511D01*
X55173Y67326D01*
X54909Y67091D01*
X54659Y66841D01*
X54424Y66577D01*
X54239Y66275D01*
X54104Y65947D01*
X54021Y65603D01*
X53993Y65250D01*
X54021Y64897D01*
X54104Y64553D01*
X54239Y64225D01*
X54424Y63923D01*
X54654Y63654D01*
X54923Y63424D01*
X55225Y63239D01*
X55553Y63104D01*
X55897Y63021D01*
X56250Y62993D01*
X56375Y63003D01*
Y62503D01*
X56364D01*
X56092Y62528D01*
X55824Y62577D01*
X55562Y62650D01*
X55307Y62747D01*
X55063Y62867D01*
X54991Y62900D01*
X54915Y62921D01*
X54837Y62929D01*
X54759Y62925D01*
X54682Y62909D01*
X54608Y62881D01*
X54540Y62842D01*
X54479Y62793D01*
X54426Y62734D01*
X54383Y62668D01*
X54351Y62596D01*
X54330Y62520D01*
X54322Y62442D01*
X54326Y62364D01*
X54342Y62287D01*
X54370Y62213D01*
X54409Y62145D01*
X54458Y62084D01*
X54517Y62031D01*
X54583Y61989D01*
X54908Y61826D01*
X55248Y61697D01*
X55598Y61599D01*
X55956Y61533D01*
X56318Y61500D01*
X56375D01*
Y30496D01*
X55111Y29233D01*
X54939Y29274D01*
X54500Y29309D01*
X54061Y29274D01*
X53632Y29171D01*
X53225Y29003D01*
X53216Y28997D01*
Y63365D01*
X53286Y63339D01*
X53363Y63323D01*
X53442Y63319D01*
X53521Y63327D01*
X53597Y63348D01*
X53670Y63380D01*
X53736Y63423D01*
X53795Y63476D01*
X53844Y63538D01*
X53884Y63607D01*
X53912Y63681D01*
X53928Y63758D01*
X53932Y63837D01*
X53924Y63916D01*
X53903Y63993D01*
X53870Y64064D01*
X53747Y64307D01*
X53650Y64562D01*
X53577Y64824D01*
X53528Y65092D01*
X53503Y65364D01*
Y65636D01*
X53528Y65908D01*
X53577Y66176D01*
X53650Y66438D01*
X53747Y66693D01*
X53867Y66937D01*
X53900Y67009D01*
X53921Y67085D01*
X53929Y67163D01*
X53925Y67241D01*
X53909Y67318D01*
X53881Y67392D01*
X53842Y67460D01*
X53793Y67521D01*
X53734Y67574D01*
X53668Y67617D01*
X53596Y67649D01*
X53520Y67670D01*
X53442Y67678D01*
X53364Y67674D01*
X53287Y67658D01*
X53216Y67631D01*
Y86500D01*
G37*
G36*
X45730D02*X53216D01*
Y67631D01*
X53213Y67630D01*
X53145Y67591D01*
X53084Y67542D01*
X53031Y67483D01*
X52989Y67417D01*
X52826Y67092D01*
X52697Y66752D01*
X52599Y66402D01*
X52533Y66044D01*
X52500Y65682D01*
Y65318D01*
X52533Y64956D01*
X52599Y64598D01*
X52697Y64248D01*
X52826Y63908D01*
X52985Y63581D01*
X53028Y63515D01*
X53081Y63456D01*
X53143Y63406D01*
X53212Y63367D01*
X53216Y63365D01*
Y28997D01*
X52849Y28772D01*
X52514Y28486D01*
X52228Y28151D01*
X51997Y27775D01*
X51829Y27368D01*
X51726Y26939D01*
X51691Y26500D01*
X51726Y26061D01*
X51829Y25632D01*
X51997Y25225D01*
X52228Y24849D01*
X52514Y24514D01*
X52849Y24228D01*
X53216Y24003D01*
Y0D01*
X45730D01*
Y38714D01*
X45798Y38728D01*
X45871Y38755D01*
X45940Y38794D01*
X46002Y38843D01*
X46055Y38901D01*
X46098Y38966D01*
X46130Y39038D01*
X46206Y39271D01*
X46260Y39511D01*
X46292Y39755D01*
X46303Y40000D01*
X46292Y40245D01*
X46260Y40489D01*
X46206Y40729D01*
X46132Y40963D01*
X46100Y41035D01*
X46056Y41100D01*
X46003Y41159D01*
X45941Y41208D01*
X45872Y41246D01*
X45798Y41274D01*
X45730Y41288D01*
Y86500D01*
G37*
G36*
X43501D02*X45730D01*
Y41288D01*
X45721Y41290D01*
X45642Y41293D01*
X45563Y41284D01*
X45487Y41263D01*
X45415Y41230D01*
X45350Y41186D01*
X45291Y41133D01*
X45242Y41071D01*
X45204Y41002D01*
X45176Y40928D01*
X45160Y40851D01*
X45157Y40772D01*
X45166Y40693D01*
X45189Y40618D01*
X45238Y40468D01*
X45272Y40314D01*
X45293Y40158D01*
X45300Y40000D01*
X45293Y39842D01*
X45272Y39686D01*
X45238Y39532D01*
X45190Y39382D01*
X45168Y39306D01*
X45159Y39228D01*
X45162Y39150D01*
X45178Y39073D01*
X45205Y38999D01*
X45244Y38930D01*
X45293Y38869D01*
X45351Y38815D01*
X45416Y38772D01*
X45488Y38739D01*
X45564Y38718D01*
X45642Y38709D01*
X45720Y38712D01*
X45730Y38714D01*
Y0D01*
X43501D01*
Y37197D01*
X43745Y37208D01*
X43989Y37240D01*
X44229Y37294D01*
X44463Y37368D01*
X44535Y37400D01*
X44600Y37444D01*
X44659Y37497D01*
X44708Y37559D01*
X44746Y37628D01*
X44774Y37702D01*
X44790Y37779D01*
X44793Y37858D01*
X44784Y37937D01*
X44763Y38013D01*
X44730Y38085D01*
X44686Y38150D01*
X44633Y38209D01*
X44571Y38258D01*
X44502Y38296D01*
X44428Y38324D01*
X44351Y38340D01*
X44272Y38343D01*
X44193Y38334D01*
X44118Y38311D01*
X43968Y38262D01*
X43814Y38228D01*
X43658Y38207D01*
X43501Y38200D01*
Y41800D01*
X43658Y41793D01*
X43814Y41772D01*
X43968Y41738D01*
X44118Y41690D01*
X44194Y41668D01*
X44272Y41659D01*
X44350Y41662D01*
X44427Y41678D01*
X44501Y41705D01*
X44570Y41744D01*
X44631Y41793D01*
X44685Y41851D01*
X44728Y41916D01*
X44761Y41988D01*
X44782Y42064D01*
X44791Y42142D01*
X44788Y42220D01*
X44772Y42298D01*
X44745Y42371D01*
X44706Y42440D01*
X44657Y42502D01*
X44599Y42555D01*
X44534Y42598D01*
X44462Y42630D01*
X44229Y42706D01*
X43989Y42760D01*
X43745Y42792D01*
X43501Y42803D01*
Y86500D01*
G37*
G36*
X41270D02*X43501D01*
Y42803D01*
X43500Y42803D01*
X43255Y42792D01*
X43011Y42760D01*
X42771Y42706D01*
X42537Y42632D01*
X42465Y42600D01*
X42400Y42556D01*
X42341Y42503D01*
X42292Y42441D01*
X42254Y42372D01*
X42226Y42298D01*
X42210Y42221D01*
X42207Y42142D01*
X42216Y42063D01*
X42237Y41987D01*
X42270Y41915D01*
X42314Y41850D01*
X42367Y41791D01*
X42429Y41742D01*
X42498Y41704D01*
X42572Y41676D01*
X42649Y41660D01*
X42728Y41657D01*
X42807Y41666D01*
X42882Y41689D01*
X43032Y41738D01*
X43186Y41772D01*
X43342Y41793D01*
X43500Y41800D01*
X43501Y41800D01*
Y38200D01*
X43500Y38200D01*
X43342Y38207D01*
X43186Y38228D01*
X43032Y38262D01*
X42882Y38310D01*
X42806Y38332D01*
X42728Y38341D01*
X42650Y38338D01*
X42573Y38322D01*
X42499Y38295D01*
X42430Y38256D01*
X42369Y38207D01*
X42315Y38149D01*
X42272Y38084D01*
X42239Y38012D01*
X42218Y37936D01*
X42209Y37858D01*
X42212Y37780D01*
X42228Y37702D01*
X42255Y37629D01*
X42294Y37560D01*
X42343Y37498D01*
X42401Y37445D01*
X42466Y37402D01*
X42538Y37370D01*
X42771Y37294D01*
X43011Y37240D01*
X43255Y37208D01*
X43500Y37197D01*
X43501Y37197D01*
Y0D01*
X41270D01*
Y38712D01*
X41279Y38710D01*
X41358Y38707D01*
X41437Y38716D01*
X41513Y38737D01*
X41585Y38770D01*
X41650Y38814D01*
X41709Y38867D01*
X41758Y38929D01*
X41796Y38998D01*
X41824Y39072D01*
X41840Y39149D01*
X41843Y39228D01*
X41834Y39307D01*
X41811Y39382D01*
X41762Y39532D01*
X41728Y39686D01*
X41707Y39842D01*
X41700Y40000D01*
X41707Y40158D01*
X41728Y40314D01*
X41762Y40468D01*
X41810Y40618D01*
X41832Y40694D01*
X41841Y40772D01*
X41838Y40850D01*
X41822Y40927D01*
X41795Y41001D01*
X41756Y41070D01*
X41707Y41131D01*
X41649Y41185D01*
X41584Y41228D01*
X41512Y41261D01*
X41436Y41282D01*
X41358Y41291D01*
X41280Y41288D01*
X41270Y41286D01*
Y86500D01*
G37*
G36*
X40001D02*X41270D01*
Y41286D01*
X41202Y41272D01*
X41129Y41245D01*
X41060Y41206D01*
X40998Y41157D01*
X40945Y41099D01*
X40902Y41034D01*
X40870Y40962D01*
X40794Y40729D01*
X40740Y40489D01*
X40708Y40245D01*
X40697Y40000D01*
X40708Y39755D01*
X40740Y39511D01*
X40794Y39271D01*
X40868Y39037D01*
X40900Y38965D01*
X40944Y38900D01*
X40997Y38841D01*
X41059Y38792D01*
X41128Y38754D01*
X41202Y38726D01*
X41270Y38712D01*
Y0D01*
X40001D01*
Y74557D01*
X40075Y74678D01*
X40316Y75260D01*
X40463Y75872D01*
X40500Y76500D01*
X40463Y77128D01*
X40316Y77740D01*
X40075Y78322D01*
X40001Y78443D01*
Y86500D01*
G37*
G36*
X42230Y102500D02*X68746D01*
Y65000D01*
X67500D01*
Y67941D01*
X67505Y68000D01*
X67486Y68235D01*
X67431Y68465D01*
X67341Y68683D01*
X67217Y68884D01*
X67064Y69064D01*
X67019Y69102D01*
X64500Y71621D01*
Y84441D01*
X64505Y84500D01*
X64486Y84735D01*
X64431Y84965D01*
X64341Y85183D01*
X64217Y85384D01*
X64064Y85564D01*
X64019Y85602D01*
X60602Y89019D01*
X60564Y89064D01*
X60384Y89217D01*
X60183Y89341D01*
X59965Y89431D01*
X59735Y89486D01*
X59735Y89486D01*
X59500Y89505D01*
X59441Y89500D01*
X42230D01*
Y97714D01*
X42298Y97728D01*
X42371Y97755D01*
X42440Y97794D01*
X42502Y97843D01*
X42555Y97901D01*
X42598Y97966D01*
X42630Y98038D01*
X42706Y98271D01*
X42760Y98511D01*
X42792Y98755D01*
X42803Y99000D01*
X42792Y99245D01*
X42760Y99489D01*
X42706Y99729D01*
X42632Y99963D01*
X42600Y100035D01*
X42556Y100100D01*
X42503Y100159D01*
X42441Y100208D01*
X42372Y100246D01*
X42298Y100274D01*
X42230Y100288D01*
Y102500D01*
G37*
G36*
X40001D02*X42230D01*
Y100288D01*
X42221Y100290D01*
X42142Y100293D01*
X42063Y100284D01*
X41987Y100263D01*
X41915Y100230D01*
X41850Y100186D01*
X41791Y100133D01*
X41742Y100071D01*
X41704Y100002D01*
X41676Y99928D01*
X41660Y99851D01*
X41657Y99772D01*
X41666Y99693D01*
X41689Y99618D01*
X41738Y99468D01*
X41772Y99314D01*
X41793Y99158D01*
X41800Y99000D01*
X41793Y98842D01*
X41772Y98686D01*
X41738Y98532D01*
X41690Y98382D01*
X41668Y98306D01*
X41659Y98228D01*
X41662Y98150D01*
X41678Y98073D01*
X41705Y97999D01*
X41744Y97930D01*
X41793Y97869D01*
X41851Y97815D01*
X41916Y97772D01*
X41988Y97739D01*
X42064Y97718D01*
X42142Y97709D01*
X42220Y97712D01*
X42230Y97714D01*
Y89500D01*
X40001D01*
Y96197D01*
X40245Y96208D01*
X40489Y96240D01*
X40729Y96294D01*
X40963Y96368D01*
X41035Y96400D01*
X41100Y96444D01*
X41159Y96497D01*
X41208Y96559D01*
X41246Y96628D01*
X41274Y96702D01*
X41290Y96779D01*
X41293Y96858D01*
X41284Y96937D01*
X41263Y97013D01*
X41230Y97085D01*
X41186Y97150D01*
X41133Y97209D01*
X41071Y97258D01*
X41002Y97296D01*
X40928Y97324D01*
X40851Y97340D01*
X40772Y97343D01*
X40693Y97334D01*
X40618Y97311D01*
X40468Y97262D01*
X40314Y97228D01*
X40158Y97207D01*
X40001Y97200D01*
Y100800D01*
X40158Y100793D01*
X40314Y100772D01*
X40468Y100738D01*
X40618Y100690D01*
X40694Y100668D01*
X40772Y100659D01*
X40850Y100662D01*
X40927Y100678D01*
X41001Y100705D01*
X41070Y100744D01*
X41131Y100793D01*
X41185Y100851D01*
X41228Y100916D01*
X41261Y100988D01*
X41282Y101064D01*
X41291Y101142D01*
X41288Y101220D01*
X41272Y101298D01*
X41245Y101371D01*
X41206Y101440D01*
X41157Y101502D01*
X41099Y101555D01*
X41034Y101598D01*
X40962Y101630D01*
X40729Y101706D01*
X40489Y101760D01*
X40245Y101792D01*
X40001Y101803D01*
Y102500D01*
G37*
G36*
X31230Y0D02*Y53500D01*
X33135D01*
X33228Y53349D01*
X33514Y53014D01*
X33849Y52728D01*
X34225Y52497D01*
X34632Y52329D01*
X35061Y52226D01*
X35500Y52191D01*
X35939Y52226D01*
X36368Y52329D01*
X36775Y52497D01*
X37151Y52728D01*
X37486Y53014D01*
X37772Y53349D01*
X38003Y53725D01*
X38171Y54132D01*
X38274Y54561D01*
X38300Y55000D01*
X38274Y55439D01*
X38171Y55868D01*
X38003Y56275D01*
X37772Y56651D01*
X37486Y56986D01*
X37151Y57272D01*
X36779Y57500D01*
X37151Y57728D01*
X37486Y58014D01*
X37772Y58349D01*
X38003Y58725D01*
X38171Y59132D01*
X38274Y59561D01*
X38300Y60000D01*
X38274Y60439D01*
X38171Y60868D01*
X38003Y61275D01*
X37772Y61651D01*
X37486Y61986D01*
X37151Y62272D01*
X36779Y62500D01*
X37151Y62728D01*
X37486Y63014D01*
X37772Y63349D01*
X38003Y63725D01*
X38171Y64132D01*
X38274Y64561D01*
X38300Y65000D01*
X38274Y65439D01*
X38171Y65868D01*
X38003Y66275D01*
X37772Y66651D01*
X37486Y66986D01*
X37151Y67272D01*
X36775Y67503D01*
X36368Y67671D01*
X35939Y67774D01*
X35500Y67809D01*
X35061Y67774D01*
X34632Y67671D01*
X34225Y67503D01*
X33849Y67272D01*
X33514Y66986D01*
X33228Y66651D01*
X33135Y66500D01*
X31230D01*
Y74700D01*
X32916D01*
X32925Y74678D01*
X33254Y74142D01*
X33663Y73663D01*
X34142Y73254D01*
X34678Y72925D01*
X35260Y72684D01*
X35872Y72537D01*
X36500Y72488D01*
X37128Y72537D01*
X37740Y72684D01*
X38322Y72925D01*
X38858Y73254D01*
X39337Y73663D01*
X39746Y74142D01*
X40001Y74557D01*
Y0D01*
X31230D01*
G37*
G36*
X37770Y86500D02*X40001D01*
Y78443D01*
X39746Y78858D01*
X39337Y79337D01*
X38858Y79746D01*
X38322Y80075D01*
X37770Y80303D01*
Y86500D01*
G37*
G36*
Y102500D02*X40001D01*
Y101803D01*
X40000Y101803D01*
X39755Y101792D01*
X39511Y101760D01*
X39271Y101706D01*
X39037Y101632D01*
X38965Y101600D01*
X38900Y101556D01*
X38841Y101503D01*
X38792Y101441D01*
X38754Y101372D01*
X38726Y101298D01*
X38710Y101221D01*
X38707Y101142D01*
X38716Y101063D01*
X38737Y100987D01*
X38770Y100915D01*
X38814Y100850D01*
X38867Y100791D01*
X38929Y100742D01*
X38998Y100704D01*
X39072Y100676D01*
X39149Y100660D01*
X39228Y100657D01*
X39307Y100666D01*
X39382Y100689D01*
X39532Y100738D01*
X39686Y100772D01*
X39842Y100793D01*
X40000Y100800D01*
X40001Y100800D01*
Y97200D01*
X40000Y97200D01*
X39842Y97207D01*
X39686Y97228D01*
X39532Y97262D01*
X39382Y97310D01*
X39306Y97332D01*
X39228Y97341D01*
X39150Y97338D01*
X39073Y97322D01*
X38999Y97295D01*
X38930Y97256D01*
X38869Y97207D01*
X38815Y97149D01*
X38772Y97084D01*
X38739Y97012D01*
X38718Y96936D01*
X38709Y96858D01*
X38712Y96780D01*
X38728Y96702D01*
X38755Y96629D01*
X38794Y96560D01*
X38843Y96498D01*
X38901Y96445D01*
X38966Y96402D01*
X39038Y96370D01*
X39271Y96294D01*
X39511Y96240D01*
X39755Y96208D01*
X40000Y96197D01*
X40001Y96197D01*
Y89500D01*
X37770D01*
Y93590D01*
X37792Y93755D01*
X37803Y94000D01*
X37792Y94245D01*
X37770Y94411D01*
Y97712D01*
X37779Y97710D01*
X37858Y97707D01*
X37937Y97716D01*
X38013Y97737D01*
X38085Y97770D01*
X38150Y97814D01*
X38209Y97867D01*
X38258Y97929D01*
X38296Y97998D01*
X38324Y98072D01*
X38340Y98149D01*
X38343Y98228D01*
X38334Y98307D01*
X38311Y98382D01*
X38262Y98532D01*
X38228Y98686D01*
X38207Y98842D01*
X38200Y99000D01*
X38207Y99158D01*
X38228Y99314D01*
X38262Y99468D01*
X38310Y99618D01*
X38332Y99694D01*
X38341Y99772D01*
X38338Y99850D01*
X38322Y99927D01*
X38295Y100001D01*
X38256Y100070D01*
X38207Y100131D01*
X38149Y100185D01*
X38084Y100228D01*
X38012Y100261D01*
X37936Y100282D01*
X37858Y100291D01*
X37780Y100288D01*
X37770Y100286D01*
Y102500D01*
G37*
G36*
X32770Y86300D02*X33014Y86014D01*
X33349Y85728D01*
X33725Y85497D01*
X34132Y85329D01*
X34561Y85226D01*
X35000Y85191D01*
X35439Y85226D01*
X35868Y85329D01*
X36275Y85497D01*
X36651Y85728D01*
X36986Y86014D01*
X37272Y86349D01*
X37365Y86500D01*
X37770D01*
Y80303D01*
X37740Y80316D01*
X37128Y80463D01*
X36500Y80512D01*
X35872Y80463D01*
X35260Y80316D01*
X34678Y80075D01*
X34142Y79746D01*
X33663Y79337D01*
X33254Y78858D01*
X32925Y78322D01*
X32916Y78300D01*
X32770D01*
Y86300D01*
G37*
G36*
X34999Y102500D02*X37770D01*
Y100286D01*
X37702Y100272D01*
X37629Y100245D01*
X37560Y100206D01*
X37498Y100157D01*
X37445Y100099D01*
X37402Y100034D01*
X37370Y99962D01*
X37294Y99729D01*
X37240Y99489D01*
X37208Y99245D01*
X37197Y99000D01*
X37208Y98755D01*
X37240Y98511D01*
X37294Y98271D01*
X37368Y98037D01*
X37400Y97965D01*
X37444Y97900D01*
X37497Y97841D01*
X37559Y97792D01*
X37628Y97754D01*
X37702Y97726D01*
X37770Y97712D01*
Y94411D01*
X37760Y94489D01*
X37706Y94729D01*
X37632Y94963D01*
X37600Y95035D01*
X37556Y95100D01*
X37503Y95159D01*
X37441Y95208D01*
X37372Y95246D01*
X37298Y95274D01*
X37221Y95290D01*
X37142Y95293D01*
X37063Y95284D01*
X36987Y95263D01*
X36915Y95230D01*
X36850Y95186D01*
X36791Y95133D01*
X36742Y95071D01*
X36704Y95002D01*
X36676Y94928D01*
X36660Y94851D01*
X36657Y94772D01*
X36666Y94693D01*
X36689Y94618D01*
X36738Y94468D01*
X36772Y94314D01*
X36793Y94158D01*
X36800Y94000D01*
X36793Y93842D01*
X36772Y93686D01*
X36738Y93532D01*
X36690Y93382D01*
X36668Y93306D01*
X36659Y93228D01*
X36662Y93150D01*
X36678Y93073D01*
X36705Y92999D01*
X36744Y92930D01*
X36793Y92869D01*
X36851Y92815D01*
X36916Y92772D01*
X36988Y92739D01*
X37064Y92718D01*
X37142Y92709D01*
X37220Y92712D01*
X37298Y92728D01*
X37371Y92755D01*
X37440Y92794D01*
X37502Y92843D01*
X37555Y92901D01*
X37598Y92966D01*
X37630Y93038D01*
X37706Y93271D01*
X37760Y93511D01*
X37770Y93590D01*
Y89500D01*
X37365D01*
X37272Y89651D01*
X36986Y89986D01*
X36651Y90272D01*
X36275Y90503D01*
X35868Y90671D01*
X35439Y90774D01*
X35000Y90809D01*
X34999Y90809D01*
Y91197D01*
X35000Y91197D01*
X35245Y91208D01*
X35489Y91240D01*
X35729Y91294D01*
X35963Y91368D01*
X36035Y91400D01*
X36100Y91444D01*
X36159Y91497D01*
X36208Y91559D01*
X36246Y91628D01*
X36274Y91702D01*
X36290Y91779D01*
X36293Y91858D01*
X36284Y91937D01*
X36263Y92013D01*
X36230Y92085D01*
X36186Y92150D01*
X36133Y92209D01*
X36071Y92258D01*
X36002Y92296D01*
X35928Y92324D01*
X35851Y92340D01*
X35772Y92343D01*
X35693Y92334D01*
X35618Y92311D01*
X35468Y92262D01*
X35314Y92228D01*
X35158Y92207D01*
X35000Y92200D01*
X34999Y92200D01*
Y95800D01*
X35000Y95800D01*
X35158Y95793D01*
X35314Y95772D01*
X35468Y95738D01*
X35618Y95690D01*
X35694Y95668D01*
X35772Y95659D01*
X35850Y95662D01*
X35927Y95678D01*
X36001Y95705D01*
X36070Y95744D01*
X36131Y95793D01*
X36185Y95851D01*
X36228Y95916D01*
X36261Y95988D01*
X36282Y96064D01*
X36291Y96142D01*
X36288Y96220D01*
X36272Y96298D01*
X36245Y96371D01*
X36206Y96440D01*
X36157Y96502D01*
X36099Y96555D01*
X36034Y96598D01*
X35962Y96630D01*
X35729Y96706D01*
X35489Y96760D01*
X35245Y96792D01*
X35000Y96803D01*
X34999Y96803D01*
Y102500D01*
G37*
G36*
X32770D02*X34999D01*
Y96803D01*
X34755Y96792D01*
X34511Y96760D01*
X34271Y96706D01*
X34037Y96632D01*
X33965Y96600D01*
X33900Y96556D01*
X33841Y96503D01*
X33792Y96441D01*
X33754Y96372D01*
X33726Y96298D01*
X33710Y96221D01*
X33707Y96142D01*
X33716Y96063D01*
X33737Y95987D01*
X33770Y95915D01*
X33814Y95850D01*
X33867Y95791D01*
X33929Y95742D01*
X33998Y95704D01*
X34072Y95676D01*
X34149Y95660D01*
X34228Y95657D01*
X34307Y95666D01*
X34382Y95689D01*
X34532Y95738D01*
X34686Y95772D01*
X34842Y95793D01*
X34999Y95800D01*
Y92200D01*
X34842Y92207D01*
X34686Y92228D01*
X34532Y92262D01*
X34382Y92310D01*
X34306Y92332D01*
X34228Y92341D01*
X34150Y92338D01*
X34073Y92322D01*
X33999Y92295D01*
X33930Y92256D01*
X33869Y92207D01*
X33815Y92149D01*
X33772Y92084D01*
X33739Y92012D01*
X33718Y91936D01*
X33709Y91858D01*
X33712Y91780D01*
X33728Y91702D01*
X33755Y91629D01*
X33794Y91560D01*
X33843Y91498D01*
X33901Y91445D01*
X33966Y91402D01*
X34038Y91370D01*
X34271Y91294D01*
X34511Y91240D01*
X34755Y91208D01*
X34999Y91197D01*
Y90809D01*
X34561Y90774D01*
X34132Y90671D01*
X33725Y90503D01*
X33349Y90272D01*
X33014Y89986D01*
X32770Y89700D01*
Y92712D01*
X32779Y92710D01*
X32858Y92707D01*
X32937Y92716D01*
X33013Y92737D01*
X33085Y92770D01*
X33150Y92814D01*
X33209Y92867D01*
X33258Y92929D01*
X33296Y92998D01*
X33324Y93072D01*
X33340Y93149D01*
X33343Y93228D01*
X33334Y93307D01*
X33311Y93382D01*
X33262Y93532D01*
X33228Y93686D01*
X33207Y93842D01*
X33200Y94000D01*
X33207Y94158D01*
X33228Y94314D01*
X33262Y94468D01*
X33310Y94618D01*
X33332Y94694D01*
X33341Y94772D01*
X33338Y94850D01*
X33322Y94927D01*
X33295Y95001D01*
X33256Y95070D01*
X33207Y95131D01*
X33149Y95185D01*
X33084Y95228D01*
X33012Y95261D01*
X32936Y95282D01*
X32858Y95291D01*
X32780Y95288D01*
X32770Y95286D01*
Y102500D01*
G37*
G36*
X31230D02*X32770D01*
Y95286D01*
X32702Y95272D01*
X32629Y95245D01*
X32560Y95206D01*
X32498Y95157D01*
X32445Y95099D01*
X32402Y95034D01*
X32370Y94962D01*
X32294Y94729D01*
X32240Y94489D01*
X32208Y94245D01*
X32197Y94000D01*
X32208Y93755D01*
X32240Y93511D01*
X32294Y93271D01*
X32368Y93037D01*
X32400Y92965D01*
X32444Y92900D01*
X32497Y92841D01*
X32559Y92792D01*
X32628Y92754D01*
X32702Y92726D01*
X32770Y92712D01*
Y89700D01*
X32728Y89651D01*
X32497Y89275D01*
X32329Y88868D01*
X32226Y88439D01*
X32191Y88000D01*
X32226Y87561D01*
X32329Y87132D01*
X32497Y86725D01*
X32728Y86349D01*
X32770Y86300D01*
Y78300D01*
X31230D01*
Y97714D01*
X31298Y97728D01*
X31371Y97755D01*
X31440Y97794D01*
X31502Y97843D01*
X31555Y97901D01*
X31598Y97966D01*
X31630Y98038D01*
X31706Y98271D01*
X31760Y98511D01*
X31792Y98755D01*
X31803Y99000D01*
X31792Y99245D01*
X31760Y99489D01*
X31706Y99729D01*
X31632Y99963D01*
X31600Y100035D01*
X31556Y100100D01*
X31503Y100159D01*
X31441Y100208D01*
X31372Y100246D01*
X31298Y100274D01*
X31230Y100288D01*
Y102500D01*
G37*
G36*
Y66500D02*X29001D01*
Y74700D01*
X31230D01*
Y66500D01*
G37*
G36*
X29001Y0D02*Y53500D01*
X31230D01*
Y0D01*
X29001D01*
G37*
G36*
Y102500D02*X31230D01*
Y100288D01*
X31221Y100290D01*
X31142Y100293D01*
X31063Y100284D01*
X30987Y100263D01*
X30915Y100230D01*
X30850Y100186D01*
X30791Y100133D01*
X30742Y100071D01*
X30704Y100002D01*
X30676Y99928D01*
X30660Y99851D01*
X30657Y99772D01*
X30666Y99693D01*
X30689Y99618D01*
X30738Y99468D01*
X30772Y99314D01*
X30793Y99158D01*
X30800Y99000D01*
X30793Y98842D01*
X30772Y98686D01*
X30738Y98532D01*
X30690Y98382D01*
X30668Y98306D01*
X30659Y98228D01*
X30662Y98150D01*
X30678Y98073D01*
X30705Y97999D01*
X30744Y97930D01*
X30793Y97869D01*
X30851Y97815D01*
X30916Y97772D01*
X30988Y97739D01*
X31064Y97718D01*
X31142Y97709D01*
X31220Y97712D01*
X31230Y97714D01*
Y78300D01*
X29001D01*
Y96197D01*
X29245Y96208D01*
X29489Y96240D01*
X29729Y96294D01*
X29963Y96368D01*
X30035Y96400D01*
X30100Y96444D01*
X30159Y96497D01*
X30208Y96559D01*
X30246Y96628D01*
X30274Y96702D01*
X30290Y96779D01*
X30293Y96858D01*
X30284Y96937D01*
X30263Y97013D01*
X30230Y97085D01*
X30186Y97150D01*
X30133Y97209D01*
X30071Y97258D01*
X30002Y97296D01*
X29928Y97324D01*
X29851Y97340D01*
X29772Y97343D01*
X29693Y97334D01*
X29618Y97311D01*
X29468Y97262D01*
X29314Y97228D01*
X29158Y97207D01*
X29001Y97200D01*
Y100800D01*
X29158Y100793D01*
X29314Y100772D01*
X29468Y100738D01*
X29618Y100690D01*
X29694Y100668D01*
X29772Y100659D01*
X29850Y100662D01*
X29927Y100678D01*
X30001Y100705D01*
X30070Y100744D01*
X30131Y100793D01*
X30185Y100851D01*
X30228Y100916D01*
X30261Y100988D01*
X30282Y101064D01*
X30291Y101142D01*
X30288Y101220D01*
X30272Y101298D01*
X30245Y101371D01*
X30206Y101440D01*
X30157Y101502D01*
X30099Y101555D01*
X30034Y101598D01*
X29962Y101630D01*
X29729Y101706D01*
X29489Y101760D01*
X29245Y101792D01*
X29001Y101803D01*
Y102500D01*
G37*
G36*
X26770Y53500D02*X29001D01*
Y0D01*
X26770D01*
Y53500D01*
G37*
G36*
Y58500D02*X29001D01*
Y56500D01*
X26770D01*
Y58500D01*
G37*
G36*
Y63500D02*X29001D01*
Y61500D01*
X26770D01*
Y63500D01*
G37*
G36*
Y74700D02*X29001D01*
Y66500D01*
X26770D01*
Y74700D01*
G37*
G36*
Y102500D02*X29001D01*
Y101803D01*
X29000Y101803D01*
X28755Y101792D01*
X28511Y101760D01*
X28271Y101706D01*
X28037Y101632D01*
X27965Y101600D01*
X27900Y101556D01*
X27841Y101503D01*
X27792Y101441D01*
X27754Y101372D01*
X27726Y101298D01*
X27710Y101221D01*
X27707Y101142D01*
X27716Y101063D01*
X27737Y100987D01*
X27770Y100915D01*
X27814Y100850D01*
X27867Y100791D01*
X27929Y100742D01*
X27998Y100704D01*
X28072Y100676D01*
X28149Y100660D01*
X28228Y100657D01*
X28307Y100666D01*
X28382Y100689D01*
X28532Y100738D01*
X28686Y100772D01*
X28842Y100793D01*
X29000Y100800D01*
X29001Y100800D01*
Y97200D01*
X29000Y97200D01*
X28842Y97207D01*
X28686Y97228D01*
X28532Y97262D01*
X28382Y97310D01*
X28306Y97332D01*
X28228Y97341D01*
X28150Y97338D01*
X28073Y97322D01*
X27999Y97295D01*
X27930Y97256D01*
X27869Y97207D01*
X27815Y97149D01*
X27772Y97084D01*
X27739Y97012D01*
X27718Y96936D01*
X27709Y96858D01*
X27712Y96780D01*
X27728Y96702D01*
X27755Y96629D01*
X27794Y96560D01*
X27843Y96498D01*
X27901Y96445D01*
X27966Y96402D01*
X28038Y96370D01*
X28271Y96294D01*
X28511Y96240D01*
X28755Y96208D01*
X29000Y96197D01*
X29001Y96197D01*
Y78300D01*
X26770D01*
Y97712D01*
X26779Y97710D01*
X26858Y97707D01*
X26937Y97716D01*
X27013Y97737D01*
X27085Y97770D01*
X27150Y97814D01*
X27209Y97867D01*
X27258Y97929D01*
X27296Y97998D01*
X27324Y98072D01*
X27340Y98149D01*
X27343Y98228D01*
X27334Y98307D01*
X27311Y98382D01*
X27262Y98532D01*
X27228Y98686D01*
X27207Y98842D01*
X27200Y99000D01*
X27207Y99158D01*
X27228Y99314D01*
X27262Y99468D01*
X27310Y99618D01*
X27332Y99694D01*
X27341Y99772D01*
X27338Y99850D01*
X27322Y99927D01*
X27295Y100001D01*
X27256Y100070D01*
X27207Y100131D01*
X27149Y100185D01*
X27084Y100228D01*
X27012Y100261D01*
X26936Y100282D01*
X26858Y100291D01*
X26780Y100288D01*
X26770Y100286D01*
Y102500D01*
G37*
G36*
X21730Y53500D02*X26770D01*
Y0D01*
X21730D01*
Y45214D01*
X21798Y45228D01*
X21871Y45255D01*
X21940Y45294D01*
X22002Y45343D01*
X22055Y45401D01*
X22098Y45466D01*
X22130Y45538D01*
X22206Y45771D01*
X22260Y46011D01*
X22292Y46255D01*
X22303Y46500D01*
X22292Y46745D01*
X22260Y46989D01*
X22206Y47229D01*
X22132Y47463D01*
X22100Y47535D01*
X22056Y47600D01*
X22003Y47659D01*
X21941Y47708D01*
X21872Y47746D01*
X21798Y47774D01*
X21730Y47788D01*
Y53500D01*
G37*
G36*
X19501D02*X21730D01*
Y47788D01*
X21721Y47790D01*
X21642Y47793D01*
X21563Y47784D01*
X21487Y47763D01*
X21415Y47730D01*
X21350Y47686D01*
X21291Y47633D01*
X21242Y47571D01*
X21204Y47502D01*
X21176Y47428D01*
X21160Y47351D01*
X21157Y47272D01*
X21166Y47193D01*
X21189Y47118D01*
X21238Y46968D01*
X21272Y46814D01*
X21293Y46658D01*
X21300Y46500D01*
X21293Y46342D01*
X21272Y46186D01*
X21238Y46032D01*
X21190Y45882D01*
X21168Y45806D01*
X21159Y45728D01*
X21162Y45650D01*
X21178Y45573D01*
X21205Y45499D01*
X21244Y45430D01*
X21293Y45369D01*
X21351Y45315D01*
X21416Y45272D01*
X21488Y45239D01*
X21564Y45218D01*
X21642Y45209D01*
X21720Y45212D01*
X21730Y45214D01*
Y0D01*
X19501D01*
Y43697D01*
X19745Y43708D01*
X19989Y43740D01*
X20229Y43794D01*
X20463Y43868D01*
X20535Y43900D01*
X20600Y43944D01*
X20659Y43997D01*
X20708Y44059D01*
X20746Y44128D01*
X20774Y44202D01*
X20790Y44279D01*
X20793Y44358D01*
X20784Y44437D01*
X20763Y44513D01*
X20730Y44585D01*
X20686Y44650D01*
X20633Y44709D01*
X20571Y44758D01*
X20502Y44796D01*
X20428Y44824D01*
X20351Y44840D01*
X20272Y44843D01*
X20193Y44834D01*
X20118Y44811D01*
X19968Y44762D01*
X19814Y44728D01*
X19658Y44707D01*
X19501Y44700D01*
Y48300D01*
X19658Y48293D01*
X19814Y48272D01*
X19968Y48238D01*
X20118Y48190D01*
X20194Y48168D01*
X20272Y48159D01*
X20350Y48162D01*
X20427Y48178D01*
X20501Y48205D01*
X20570Y48244D01*
X20631Y48293D01*
X20685Y48351D01*
X20728Y48416D01*
X20761Y48488D01*
X20782Y48564D01*
X20791Y48642D01*
X20788Y48720D01*
X20772Y48798D01*
X20745Y48871D01*
X20706Y48940D01*
X20657Y49002D01*
X20599Y49055D01*
X20534Y49098D01*
X20462Y49130D01*
X20229Y49206D01*
X19989Y49260D01*
X19745Y49292D01*
X19501Y49303D01*
Y53500D01*
G37*
G36*
X17270D02*X19501D01*
Y49303D01*
X19500Y49303D01*
X19255Y49292D01*
X19011Y49260D01*
X18771Y49206D01*
X18537Y49132D01*
X18465Y49100D01*
X18400Y49056D01*
X18341Y49003D01*
X18292Y48941D01*
X18254Y48872D01*
X18226Y48798D01*
X18210Y48721D01*
X18207Y48642D01*
X18216Y48563D01*
X18237Y48487D01*
X18270Y48415D01*
X18314Y48350D01*
X18367Y48291D01*
X18429Y48242D01*
X18498Y48204D01*
X18572Y48176D01*
X18649Y48160D01*
X18728Y48157D01*
X18807Y48166D01*
X18882Y48189D01*
X19032Y48238D01*
X19186Y48272D01*
X19342Y48293D01*
X19500Y48300D01*
X19501Y48300D01*
Y44700D01*
X19500Y44700D01*
X19342Y44707D01*
X19186Y44728D01*
X19032Y44762D01*
X18882Y44810D01*
X18806Y44832D01*
X18728Y44841D01*
X18650Y44838D01*
X18573Y44822D01*
X18499Y44795D01*
X18430Y44756D01*
X18369Y44707D01*
X18315Y44649D01*
X18272Y44584D01*
X18239Y44512D01*
X18218Y44436D01*
X18209Y44358D01*
X18212Y44280D01*
X18228Y44202D01*
X18255Y44129D01*
X18294Y44060D01*
X18343Y43998D01*
X18401Y43945D01*
X18466Y43902D01*
X18538Y43870D01*
X18771Y43794D01*
X19011Y43740D01*
X19255Y43708D01*
X19500Y43697D01*
X19501Y43697D01*
Y0D01*
X17270D01*
Y45212D01*
X17279Y45210D01*
X17358Y45207D01*
X17437Y45216D01*
X17513Y45237D01*
X17585Y45270D01*
X17650Y45314D01*
X17709Y45367D01*
X17758Y45429D01*
X17796Y45498D01*
X17824Y45572D01*
X17840Y45649D01*
X17843Y45728D01*
X17834Y45807D01*
X17811Y45882D01*
X17762Y46032D01*
X17728Y46186D01*
X17707Y46342D01*
X17700Y46500D01*
X17707Y46658D01*
X17728Y46814D01*
X17762Y46968D01*
X17810Y47118D01*
X17832Y47194D01*
X17841Y47272D01*
X17838Y47350D01*
X17822Y47427D01*
X17795Y47501D01*
X17756Y47570D01*
X17707Y47631D01*
X17649Y47685D01*
X17584Y47728D01*
X17512Y47761D01*
X17436Y47782D01*
X17358Y47791D01*
X17280Y47788D01*
X17270Y47786D01*
Y53500D01*
G37*
G36*
X11784D02*X17270D01*
Y47786D01*
X17202Y47772D01*
X17129Y47745D01*
X17060Y47706D01*
X16998Y47657D01*
X16945Y47599D01*
X16902Y47534D01*
X16870Y47462D01*
X16794Y47229D01*
X16740Y46989D01*
X16708Y46745D01*
X16697Y46500D01*
X16708Y46255D01*
X16740Y46011D01*
X16794Y45771D01*
X16868Y45537D01*
X16900Y45465D01*
X16944Y45400D01*
X16997Y45341D01*
X17059Y45292D01*
X17128Y45254D01*
X17202Y45226D01*
X17270Y45212D01*
Y0D01*
X11784D01*
Y43869D01*
X11787Y43870D01*
X11855Y43909D01*
X11916Y43958D01*
X11969Y44017D01*
X12011Y44083D01*
X12174Y44408D01*
X12303Y44748D01*
X12401Y45098D01*
X12467Y45456D01*
X12500Y45818D01*
Y46182D01*
X12467Y46544D01*
X12401Y46902D01*
X12303Y47252D01*
X12174Y47592D01*
X12015Y47919D01*
X11972Y47985D01*
X11919Y48044D01*
X11857Y48094D01*
X11788Y48133D01*
X11784Y48135D01*
Y53500D01*
G37*
G36*
X8502D02*X11784D01*
Y48135D01*
X11714Y48161D01*
X11637Y48177D01*
X11558Y48181D01*
X11479Y48173D01*
X11403Y48152D01*
X11330Y48120D01*
X11264Y48077D01*
X11205Y48024D01*
X11156Y47962D01*
X11116Y47893D01*
X11088Y47819D01*
X11072Y47742D01*
X11068Y47663D01*
X11076Y47584D01*
X11097Y47507D01*
X11130Y47436D01*
X11253Y47193D01*
X11350Y46938D01*
X11423Y46676D01*
X11472Y46408D01*
X11497Y46136D01*
Y45864D01*
X11472Y45592D01*
X11423Y45324D01*
X11350Y45062D01*
X11253Y44807D01*
X11133Y44563D01*
X11100Y44491D01*
X11079Y44416D01*
X11071Y44337D01*
X11075Y44259D01*
X11091Y44182D01*
X11119Y44108D01*
X11158Y44040D01*
X11207Y43979D01*
X11266Y43926D01*
X11332Y43883D01*
X11404Y43851D01*
X11480Y43830D01*
X11558Y43822D01*
X11636Y43826D01*
X11713Y43842D01*
X11784Y43869D01*
Y0D01*
X8502D01*
Y42000D01*
X8682D01*
X9044Y42033D01*
X9402Y42099D01*
X9752Y42197D01*
X10092Y42326D01*
X10419Y42485D01*
X10485Y42528D01*
X10544Y42581D01*
X10594Y42643D01*
X10633Y42712D01*
X10661Y42786D01*
X10677Y42863D01*
X10681Y42942D01*
X10673Y43021D01*
X10652Y43097D01*
X10620Y43170D01*
X10577Y43236D01*
X10524Y43295D01*
X10462Y43344D01*
X10393Y43384D01*
X10319Y43412D01*
X10242Y43428D01*
X10163Y43432D01*
X10084Y43424D01*
X10007Y43403D01*
X9936Y43370D01*
X9693Y43247D01*
X9438Y43150D01*
X9176Y43077D01*
X8908Y43028D01*
X8636Y43003D01*
X8502D01*
Y48997D01*
X8636D01*
X8908Y48972D01*
X9176Y48923D01*
X9438Y48850D01*
X9693Y48753D01*
X9937Y48633D01*
X10009Y48600D01*
X10084Y48579D01*
X10163Y48571D01*
X10241Y48575D01*
X10318Y48591D01*
X10392Y48619D01*
X10460Y48658D01*
X10521Y48707D01*
X10574Y48766D01*
X10617Y48832D01*
X10649Y48904D01*
X10670Y48980D01*
X10678Y49058D01*
X10674Y49136D01*
X10658Y49213D01*
X10630Y49287D01*
X10591Y49355D01*
X10542Y49416D01*
X10483Y49469D01*
X10417Y49511D01*
X10092Y49674D01*
X9752Y49803D01*
X9402Y49901D01*
X9044Y49967D01*
X8682Y50000D01*
X8502D01*
Y53500D01*
G37*
G36*
Y58500D02*X26770D01*
Y56500D01*
X8502D01*
Y58500D01*
G37*
G36*
Y66877D02*X11398Y63981D01*
X11436Y63936D01*
X11616Y63783D01*
X11817Y63659D01*
X12035Y63569D01*
X12265Y63514D01*
X12500Y63495D01*
X12559Y63500D01*
X26770D01*
Y61500D01*
X8621D01*
X8502Y61620D01*
Y66877D01*
G37*
G36*
Y102500D02*X26770D01*
Y100286D01*
X26702Y100272D01*
X26629Y100245D01*
X26560Y100206D01*
X26498Y100157D01*
X26445Y100099D01*
X26402Y100034D01*
X26370Y99962D01*
X26294Y99729D01*
X26240Y99489D01*
X26208Y99245D01*
X26197Y99000D01*
X26208Y98755D01*
X26240Y98511D01*
X26294Y98271D01*
X26368Y98037D01*
X26400Y97965D01*
X26444Y97900D01*
X26497Y97841D01*
X26559Y97792D01*
X26628Y97754D01*
X26702Y97726D01*
X26770Y97712D01*
Y78300D01*
X22071D01*
X22000Y78306D01*
X21718Y78283D01*
X21442Y78217D01*
X21180Y78109D01*
X20939Y77961D01*
X20939Y77961D01*
X20723Y77777D01*
X20677Y77723D01*
X18761Y75807D01*
X18740Y75816D01*
X18128Y75963D01*
X17500Y76012D01*
X16872Y75963D01*
X16260Y75816D01*
X15678Y75575D01*
X15142Y75246D01*
X14663Y74837D01*
X14254Y74358D01*
X13925Y73822D01*
X13684Y73240D01*
X13537Y72628D01*
X13488Y72000D01*
X13537Y71372D01*
X13684Y70760D01*
X13925Y70178D01*
X14254Y69642D01*
X14663Y69163D01*
X15142Y68754D01*
X15678Y68425D01*
X16260Y68184D01*
X16872Y68037D01*
X17500Y67988D01*
X18128Y68037D01*
X18740Y68184D01*
X19322Y68425D01*
X19858Y68754D01*
X20337Y69163D01*
X20746Y69642D01*
X21075Y70178D01*
X21316Y70760D01*
X21463Y71372D01*
X21500Y72000D01*
X21463Y72628D01*
X21316Y73240D01*
X21307Y73261D01*
X22746Y74700D01*
X26770D01*
Y66500D01*
X13121D01*
X8502Y71120D01*
Y102500D01*
G37*
G36*
X5216Y52652D02*X5233Y52659D01*
X5434Y52783D01*
X5614Y52936D01*
X5767Y53116D01*
X5891Y53317D01*
X5966Y53500D01*
X8502D01*
Y50000D01*
X8318D01*
X7956Y49967D01*
X7598Y49901D01*
X7248Y49803D01*
X6908Y49674D01*
X6581Y49515D01*
X6515Y49472D01*
X6456Y49419D01*
X6406Y49357D01*
X6367Y49288D01*
X6339Y49214D01*
X6323Y49137D01*
X6319Y49058D01*
X6327Y48979D01*
X6348Y48903D01*
X6380Y48830D01*
X6423Y48764D01*
X6476Y48705D01*
X6538Y48656D01*
X6607Y48616D01*
X6681Y48588D01*
X6758Y48572D01*
X6837Y48568D01*
X6916Y48576D01*
X6993Y48597D01*
X7064Y48630D01*
X7307Y48753D01*
X7562Y48850D01*
X7824Y48923D01*
X8092Y48972D01*
X8364Y48997D01*
X8502D01*
Y43003D01*
X8364D01*
X8092Y43028D01*
X7824Y43077D01*
X7562Y43150D01*
X7307Y43247D01*
X7063Y43367D01*
X6991Y43400D01*
X6915Y43421D01*
X6837Y43429D01*
X6759Y43425D01*
X6682Y43409D01*
X6608Y43381D01*
X6540Y43342D01*
X6479Y43293D01*
X6426Y43234D01*
X6383Y43168D01*
X6351Y43096D01*
X6330Y43020D01*
X6322Y42942D01*
X6326Y42864D01*
X6342Y42787D01*
X6370Y42713D01*
X6409Y42645D01*
X6458Y42584D01*
X6517Y42531D01*
X6583Y42489D01*
X6908Y42326D01*
X7248Y42197D01*
X7598Y42099D01*
X7956Y42033D01*
X8318Y42000D01*
X8502D01*
Y0D01*
X5216D01*
Y43865D01*
X5286Y43839D01*
X5363Y43823D01*
X5442Y43819D01*
X5521Y43827D01*
X5597Y43848D01*
X5670Y43880D01*
X5736Y43923D01*
X5795Y43976D01*
X5844Y44038D01*
X5884Y44107D01*
X5912Y44181D01*
X5928Y44258D01*
X5932Y44337D01*
X5924Y44416D01*
X5903Y44493D01*
X5870Y44564D01*
X5747Y44807D01*
X5650Y45062D01*
X5577Y45324D01*
X5528Y45592D01*
X5503Y45864D01*
Y46136D01*
X5528Y46408D01*
X5577Y46676D01*
X5650Y46938D01*
X5747Y47193D01*
X5867Y47437D01*
X5900Y47509D01*
X5921Y47585D01*
X5929Y47663D01*
X5925Y47741D01*
X5909Y47818D01*
X5881Y47892D01*
X5842Y47960D01*
X5793Y48021D01*
X5734Y48074D01*
X5668Y48117D01*
X5596Y48149D01*
X5520Y48170D01*
X5442Y48178D01*
X5364Y48174D01*
X5287Y48158D01*
X5216Y48131D01*
Y52652D01*
G37*
G36*
Y60662D02*X6898Y58981D01*
X6936Y58936D01*
X7116Y58783D01*
X7317Y58659D01*
X7535Y58569D01*
X7765Y58514D01*
X8000Y58495D01*
X8059Y58500D01*
X8502D01*
Y56500D01*
X5966D01*
X5891Y56683D01*
X5767Y56884D01*
X5614Y57064D01*
X5434Y57217D01*
X5233Y57341D01*
X5216Y57348D01*
Y60662D01*
G37*
G36*
Y70162D02*X8502Y66877D01*
Y61620D01*
X6046Y64075D01*
X6036Y65735D01*
X5981Y65965D01*
X5891Y66183D01*
X5767Y66384D01*
X5614Y66564D01*
X5434Y66717D01*
X5233Y66841D01*
X5216Y66848D01*
Y70162D01*
G37*
G36*
Y102500D02*X8502D01*
Y71120D01*
X6046Y73575D01*
X6036Y75235D01*
X5981Y75465D01*
X5891Y75683D01*
X5767Y75884D01*
X5614Y76064D01*
X5434Y76217D01*
X5233Y76341D01*
X5216Y76348D01*
Y102500D01*
G37*
G36*
X0D02*X5216D01*
Y76348D01*
X5015Y76431D01*
X4785Y76486D01*
X4550Y76500D01*
X2215Y76486D01*
X1985Y76431D01*
X1767Y76341D01*
X1566Y76217D01*
X1386Y76064D01*
X1233Y75884D01*
X1109Y75683D01*
X1019Y75465D01*
X964Y75235D01*
X950Y75000D01*
X964Y72765D01*
X1019Y72535D01*
X1109Y72317D01*
X1233Y72116D01*
X1386Y71936D01*
X1566Y71783D01*
X1767Y71659D01*
X1985Y71569D01*
X2215Y71514D01*
X2450Y71500D01*
X3870Y71508D01*
X5216Y70162D01*
Y66848D01*
X5015Y66931D01*
X4785Y66986D01*
X4550Y67000D01*
X2215Y66986D01*
X1985Y66931D01*
X1767Y66841D01*
X1566Y66717D01*
X1386Y66564D01*
X1233Y66384D01*
X1109Y66183D01*
X1019Y65965D01*
X964Y65735D01*
X950Y65500D01*
X964Y63265D01*
X1019Y63035D01*
X1109Y62817D01*
X1233Y62616D01*
X1386Y62436D01*
X1566Y62283D01*
X1767Y62159D01*
X1985Y62069D01*
X2215Y62014D01*
X2450Y62000D01*
X3870Y62008D01*
X5216Y60662D01*
Y57348D01*
X5015Y57431D01*
X4785Y57486D01*
X4550Y57500D01*
X2215Y57486D01*
X1985Y57431D01*
X1767Y57341D01*
X1566Y57217D01*
X1386Y57064D01*
X1233Y56884D01*
X1109Y56683D01*
X1019Y56465D01*
X964Y56235D01*
X950Y56000D01*
X964Y53765D01*
X1019Y53535D01*
X1109Y53317D01*
X1233Y53116D01*
X1386Y52936D01*
X1566Y52783D01*
X1767Y52659D01*
X1985Y52569D01*
X2215Y52514D01*
X2450Y52500D01*
X4785Y52514D01*
X5015Y52569D01*
X5216Y52652D01*
Y48131D01*
X5213Y48130D01*
X5145Y48091D01*
X5084Y48042D01*
X5031Y47983D01*
X4989Y47917D01*
X4826Y47592D01*
X4697Y47252D01*
X4599Y46902D01*
X4533Y46544D01*
X4500Y46182D01*
Y45818D01*
X4533Y45456D01*
X4599Y45098D01*
X4697Y44748D01*
X4826Y44408D01*
X4985Y44081D01*
X5028Y44015D01*
X5081Y43956D01*
X5143Y43906D01*
X5212Y43867D01*
X5216Y43865D01*
Y0D01*
X0D01*
Y102500D01*
G37*
G54D170*X57000Y65000D02*X56500Y65500D01*
G54D171*X56250Y65250D02*X56500Y65500D01*
G54D170*X54500Y26500D02*X63000Y35000D01*
X71000D01*
X63000Y71000D02*X66000Y68000D01*
Y53000D01*
Y64000D02*Y62500D01*
Y63000D01*
X102500Y63500D02*X66500D01*
X66000Y64000D01*
Y63000D02*X66500Y63500D01*
X101500Y33500D02*X102000Y33000D01*
G54D171*X137000Y92000D02*Y17000D01*
X144000Y10000D01*
G54D170*X35500Y55000D02*X3500D01*
X35500Y60000D02*X8000D01*
X3500Y64500D01*
X35500Y65000D02*X12500D01*
X3500Y74000D01*
G54D172*X17500Y72000D02*X22000Y76500D01*
X36500D01*
G54D170*X35000Y88000D02*X59500D01*
X63000Y84500D01*
Y71000D01*
G54D173*X3450Y64500D02*X3550D01*
X3450Y55000D02*X3550D01*
X3450Y74000D02*X3550D01*
G54D174*X35500Y65000D03*
Y60000D03*
Y55000D03*
G54D175*X17500Y72000D03*
X36500Y76500D03*
X56500Y65500D03*
G54D174*X43500Y40000D03*
G54D175*X8500Y46000D03*
G54D174*X19500Y46500D03*
X35000Y94000D03*
Y88000D03*
X40000Y99000D03*
X29000D03*
X54500Y26500D03*
X71000Y35000D03*
X91000Y33500D03*
X102000Y33000D03*
G54D175*X71000Y42500D03*
X144000Y10000D03*
X137000Y92000D03*
G54D174*X66000Y53000D03*
X102500Y63500D03*
X117000Y82000D03*
G54D176*G54D177*G54D176*G54D177*G54D176*G54D177*G54D176*M02*
