M48
INCH
T180C0.035
T179C0.020
%
T179
X003550Y006500
X003550Y006000
X003550Y005500
X004350Y004000
X001950Y004650
X003500Y009400
X003500Y008800
X004000Y009900
X002900Y009900
X005450Y002650
X007100Y003500
X009100Y003350
X010200Y003300
X006600Y005300
X010250Y006350
X011700Y008200
T180
X001750Y007200
X003650Y007650
X005650Y006550
X000850Y004600
X007100Y004250
X014400Y001000
X013700Y009200
M30
